<svg xmlns="http://www.w3.org/2000/svg" viewBox="0 0 220.62 66.16"><defs><style>.cls-1{fill:#fff;}</style></defs><g id="Layer_2" data-name="Layer 2"><g id="Layer_1-2" data-name="Layer 1"><path class="cls-1" d="M174.07,25.77h0l.37,0,.28-.12c1.69-.85,4-1.23,7.4-1.23,1.64,0,3.33.08,5.12.17h.07l3,.13,1.42,0c6.84.27,11.92.38,14.8-4.11a11.8,11.8,0,0,0,1.67-4.73,1.8,1.8,0,0,0-.4-1.44,1.56,1.56,0,0,0-1.18-.54h0l-.36,0-.28.12c-1.69.85-4,1.22-7.41,1.22-1.63,0-3.32-.08-5.11-.17h-.2L190.38,15,189,14.94c-1.42,0-2.88-.11-4.23-.11-4.72,0-8.32.72-10.57,4.22a11.9,11.9,0,0,0-1.67,4.74,1.8,1.8,0,0,0,.4,1.44A1.56,1.56,0,0,0,174.07,25.77ZM173.88,24a10.5,10.5,0,0,1,1.46-4.19c1.91-3,5-3.57,9.39-3.57,1.29,0,2.69.06,4.18.11l1.42.06c1,0,2,.08,3,.13,1.75.08,3.56.17,5.24.17,3.67,0,6.15-.42,8.08-1.38a.14.14,0,0,1,.09.05.4.4,0,0,1,.08.31,10.45,10.45,0,0,1-1.47,4.18c-1.91,3-5,3.57-9.38,3.57-1.29,0-2.69-.05-4.18-.11l-1.43,0c-1,0-2-.08-3-.13-1.75-.09-3.56-.18-5.25-.18-3.66,0-6.14.43-8.07,1.39a.14.14,0,0,1-.09-.05A.4.4,0,0,1,173.88,24Z"/><path class="cls-1" d="M201,40.39h0l-.37,0-.28.12c-1.68.85-4,1.23-7.4,1.23-1.64,0-3.33-.08-5.12-.17h-.2l-2.86-.13-1.47,0c-1.48-.06-2.88-.11-4.18-.11-4.72,0-8.32.72-10.57,4.22a11.85,11.85,0,0,0-1.67,4.74,1.78,1.78,0,0,0,.4,1.43,1.53,1.53,0,0,0,1.18.54h0l.36,0,.28-.13c1.69-.84,4-1.22,7.41-1.22,1.63,0,3.33.08,5.12.17h.2c.95,0,1.9.09,2.85.12l1.42.06c1.42.05,2.89.11,4.23.11,4.72,0,8.32-.72,10.57-4.22a11.85,11.85,0,0,0,1.67-4.74,1.78,1.78,0,0,0-.4-1.43A1.54,1.54,0,0,0,201,40.39Zm.19,1.78a10.45,10.45,0,0,1-1.46,4.18c-1.91,3-5,3.57-9.39,3.57-1.29,0-2.69-.05-4.17-.11l-1.43-.05-3-.14c-1.74-.08-3.55-.17-5.24-.17-3.67,0-6.15.42-8.08,1.39a.12.12,0,0,1-.09-.06.4.4,0,0,1-.08-.31,10.6,10.6,0,0,1,1.46-4.18c1.92-3,5-3.57,9.39-3.57,1.3,0,2.7.05,4.18.11l1.42.05,3,.13c1.75.09,3.56.18,5.25.18,3.66,0,6.14-.43,8.07-1.39a.12.12,0,0,1,.09.06A.4.4,0,0,1,201.21,42.17Z"/><path class="cls-1" d="M187.54,0a33,33,0,0,0-23.35,56.44,32.84,32.84,0,0,0,22.56,9.71h.79a33.08,33.08,0,1,0,0-66.16Zm31.68,33.08a31.7,31.7,0,0,1-31.67,31.67h-.77a31.67,31.67,0,1,1,32.44-31.67Z"/><path class="cls-1" d="M192.37,27.18,187.58,27l-2.28-.07c-2.4-.07-4.66-.14-6.76-.14-7.31,0-12.89.91-16.34,5.36a14.17,14.17,0,0,0-2.63,6.22,1.9,1.9,0,0,0,.42,1.57,1.79,1.79,0,0,0,2.08.52c2.83-1.18,6.62-1.71,12.28-1.71,2.72,0,5.59.12,8.38.23h.14l4.64.17,2.29.07c2.28.07,4.63.15,6.76.15,7.31,0,12.88-.92,16.32-5.37a14,14,0,0,0,2.64-6.22,1.94,1.94,0,0,0-.42-1.57A1.83,1.83,0,0,0,213,25.7c-2.83,1.19-6.62,1.71-12.28,1.71C198.07,27.41,195.33,27.3,192.37,27.18Zm-13.83,1c2.08,0,4.33.08,6.71.15l2.29.07,4.79.18c2.8.11,5.7.23,8.41.23,5.86,0,9.81-.56,12.82-1.82a.41.41,0,0,1,.46.13.49.49,0,0,1,.11.42,12.58,12.58,0,0,1-2.36,5.6c-3.11,4-8.12,4.82-15.21,4.82-2.08,0-4.33-.07-6.72-.15l-2.29-.07q-2.38-.07-4.77-.18c-2.81-.11-5.71-.23-8.43-.23-5.85,0-9.81.56-12.82,1.82a.39.39,0,0,1-.46-.12.5.5,0,0,1-.11-.42,12.53,12.53,0,0,1,2.36-5.6C166.42,29,171.45,28.19,178.54,28.19Z"/><path class="cls-1" d="M26.45,31.64a9.78,9.78,0,0,0-4.93-1.24h-12a5,5,0,0,1-3.55-1.25A4,4,0,0,1,4.55,26a4.37,4.37,0,0,1,1.34-3.43,5.27,5.27,0,0,1,3.62-1.22H27.18a2.25,2.25,0,0,0,2.23-2.23V16.78h-20a9.91,9.91,0,0,0-4.75,1.16,8.73,8.73,0,0,0-3.4,3.26A9.14,9.14,0,0,0,0,25.89a9.05,9.05,0,0,0,1.21,4.62,8.69,8.69,0,0,0,3.35,3.24A10.07,10.07,0,0,0,9.38,34.9H21.16A5.53,5.53,0,0,1,25,36.18a4.59,4.59,0,0,1,1.37,3.6,4.69,4.69,0,0,1-5.1,5.06H2.68a2.15,2.15,0,0,0-1.57.65,2.16,2.16,0,0,0-.66,1.58v2.31H21.52a9.73,9.73,0,0,0,4.89-1.23,8.86,8.86,0,0,0,3.37-3.42,10.48,10.48,0,0,0,0-9.7A8.73,8.73,0,0,0,26.45,31.64Z"/><path class="cls-1" d="M71.7,17.15a2,2,0,0,0-.81,1L61.76,42.09l-8.6-22.66a2,2,0,0,0-.81-1,2.14,2.14,0,0,0-1.2-.37h-3.3L52,28.94,47,42.09,37.88,18.17a2.05,2.05,0,0,0-.82-1,2.14,2.14,0,0,0-1.2-.37h-3.3L45,49.38H49l5.43-14.2,5.39,14.2H63.7l12.51-32.6h-3.3A2.17,2.17,0,0,0,71.7,17.15Z"/><path class="cls-1" d="M105,16.78H92.38a14.11,14.11,0,0,0-7.53,2,13.86,13.86,0,0,0-5.17,5.67,18.06,18.06,0,0,0-1.85,8.29,18.76,18.76,0,0,0,1.89,8.44,15.14,15.14,0,0,0,5.22,6,13.29,13.29,0,0,0,7.44,2.19H105a2.24,2.24,0,0,0,1.57-.62,2,2,0,0,0,.66-1.52V44.93H93.05a10,10,0,0,1-5.46-1.53,10.53,10.53,0,0,1-3.76-4.21A13.5,13.5,0,0,1,82.46,33a13.42,13.42,0,0,1,1.37-6.11,10.4,10.4,0,0,1,3.76-4.19,10.11,10.11,0,0,1,5.46-1.5h14.19V19a2.2,2.2,0,0,0-.64-1.6A2.16,2.16,0,0,0,105,16.78Z"/><path class="cls-1" d="M119.65,22.74a10.09,10.09,0,0,1,5.46-1.5H139.3V19a2.17,2.17,0,0,0-2.23-2.23H124.43a14.16,14.16,0,0,0-7.53,2,13.9,13.9,0,0,0-5.16,5.67,18.06,18.06,0,0,0-1.85,8.29,18.63,18.63,0,0,0,1.89,8.44,15.14,15.14,0,0,0,5.22,6,13.24,13.24,0,0,0,7.43,2.19h12.64a2.2,2.2,0,0,0,1.56-.62,2.06,2.06,0,0,0,.67-1.52V44.93H125.11a9.94,9.94,0,0,1-5.46-1.53,10.53,10.53,0,0,1-3.76-4.21A13.5,13.5,0,0,1,114.52,33a13.42,13.42,0,0,1,1.37-6.11A10.33,10.33,0,0,1,119.65,22.74Z"/></g></g></svg>