<svg xmlns="http://www.w3.org/2000/svg" viewBox="0 0 85.23 22.46"><defs><style>.cls-1{fill:#fff;}</style></defs><g id="Layer_2" data-name="Layer 2"><g id="Layer_1-2" data-name="Layer 1"><path class="cls-1" d="M5.92,9.41H8.26v7H5.92ZM7.1,6a1.21,1.21,0,1,0,0,2.42h0A1.21,1.21,0,1,0,7.1,6ZM14,9.24a2.34,2.34,0,0,0-2.1,1.16v-1H9.55c0,.66,0,7,0,7h2.33V12.51a1.64,1.64,0,0,1,.08-.57,1.27,1.27,0,0,1,1.2-.85c.84,0,1.18.64,1.18,1.58v3.76h2.33v-4C16.67,10.25,15.52,9.24,14,9.24Z"/><path class="cls-1" d="M15.87,22.46H6.58A6.59,6.59,0,0,1,0,15.87V6.58A6.59,6.59,0,0,1,6.58,0h9.29a6.59,6.59,0,0,1,6.59,6.58v9.29A6.6,6.6,0,0,1,15.87,22.46ZM6.58.79A5.8,5.8,0,0,0,.79,6.58v9.29a5.8,5.8,0,0,0,5.79,5.8h9.29a5.8,5.8,0,0,0,5.8-5.8V6.58A5.8,5.8,0,0,0,15.87.79Z"/><path class="cls-1" d="M47.19,5.05h1.07l0,0L46.86,6.69,43.92,10.1l-.15.18,4.88,7.11H45.06l-3.29-4.79,0,0c-.19.21-.37.43-.55.64l-2.58,3-1,1.12H36.59a.56.56,0,0,0,0-.08l1.28-1.48,1.72-2c.54-.62,1.08-1.25,1.61-1.88,0,0,0,0,0,0l0-.05L37.65,6.61,36.58,5.05h3.6l0,0,.71,1,2.34,3.41,0,0,0,0,1.7-2,2-2.29ZM38,5.86l.2.27,6.31,9.05,1,1.41s0,0,.07,0h1.59l0-.06-3.7-5.3L39.71,5.92a.13.13,0,0,0-.11-.06H38Z"/><path class="cls-1" d="M47.26,22.46H38a6.59,6.59,0,0,1-6.58-6.59V6.58A6.59,6.59,0,0,1,38,0h9.29a6.59,6.59,0,0,1,6.58,6.58v9.29A6.59,6.59,0,0,1,47.26,22.46ZM38,.79a5.8,5.8,0,0,0-5.8,5.79v9.29a5.8,5.8,0,0,0,5.8,5.8h9.29a5.8,5.8,0,0,0,5.8-5.8V6.58A5.8,5.8,0,0,0,47.26.79Z"/><path class="cls-1" d="M79.3,12.12a1.54,1.54,0,0,0-1.55-1.53c-1.22-.05-2.47-.08-3.75-.07s-2.52,0-3.75.07a1.54,1.54,0,0,0-1.55,1.53c0,.67-.07,1.34-.07,2s0,1.34.07,2a1.54,1.54,0,0,0,1.55,1.53c1.23,0,2.48.08,3.75.07s2.53,0,3.75-.07a1.54,1.54,0,0,0,1.55-1.53c0-.67.07-1.34.07-2S79.35,12.79,79.3,12.12ZM71,16.44h-.74V12.38h-.76v-.69h2.26v.69H71v4.06Zm2.61,0h-.65v-.39a1.63,1.63,0,0,1-.38.33.82.82,0,0,1-.38.11.41.41,0,0,1-.34-.16.83.83,0,0,1-.11-.47V12.93h.65v2.69a.3.3,0,0,0,0,.18.14.14,0,0,0,.13,0,.32.32,0,0,0,.18-.07.93.93,0,0,0,.21-.19V12.93h.65Zm2.5-.73a.92.92,0,0,1-.15.57.53.53,0,0,1-.44.2.63.63,0,0,1-.34-.08,1,1,0,0,1-.28-.23v.27H74.2V11.69h.66v1.53a1.07,1.07,0,0,1,.28-.25.67.67,0,0,1,.3-.08.54.54,0,0,1,.47.22,1.11,1.11,0,0,1,.16.66Zm2.41-.94H77.24v.66a.85.85,0,0,0,.06.38.24.24,0,0,0,.22.11.27.27,0,0,0,.23-.09.86.86,0,0,0,.06-.4v-.25h.67v.27a1.19,1.19,0,0,1-.24.81,1,1,0,0,1-.73.27.85.85,0,0,1-.69-.29,1.15,1.15,0,0,1-.25-.79V13.87a1,1,0,0,1,.27-.74,1,1,0,0,1,.71-.29.87.87,0,0,1,.69.27,1.1,1.1,0,0,1,.24.76v.9ZM74.33,9.36a.8.8,0,0,1-.12-.47V6h.65V8.64a.26.26,0,0,0,0,.18.14.14,0,0,0,.13.06.41.41,0,0,0,.18-.07,1.19,1.19,0,0,0,.2-.19V6h.65v3.5h-.65V9.07a1.4,1.4,0,0,1-.37.33.82.82,0,0,1-.38.11A.39.39,0,0,1,74.33,9.36Zm-2.56-.79a1,1,0,0,0,.26.72.93.93,0,0,0,.68.26.88.88,0,0,0,1-1V6.78a.87.87,0,0,0-.92-.91,1,1,0,0,0-.71.24.86.86,0,0,0-.26.65V8.57Zm.67-1.84a.21.21,0,0,1,.07-.18.27.27,0,0,1,.2-.07.31.31,0,0,1,.21.07.22.22,0,0,1,.08.18V8.64a.31.31,0,0,1-.08.22.25.25,0,0,1-.21.08.23.23,0,0,1-.2-.08.29.29,0,0,1-.07-.22V6.73Zm2.89,6.81a.41.41,0,0,1,.07.27v1.81a.48.48,0,0,1-.05.24.21.21,0,0,1-.18.07.32.32,0,0,1-.16,0,.4.4,0,0,1-.15-.12V13.59a.42.42,0,0,1,.13-.11.43.43,0,0,1,.14,0A.23.23,0,0,1,75.33,13.54Zm2.41,0a.54.54,0,0,1,.07.32v.35h-.57v-.35a.65.65,0,0,1,.06-.32.27.27,0,0,1,.23-.09A.23.23,0,0,1,77.74,13.55Zm-7.52-6-.88-2.87h.74l.48,1.9h0l.46-1.9h.74L71,7.49v2h-.73Z"/><path class="cls-1" d="M78.65,22.46H69.36a6.6,6.6,0,0,1-6.59-6.59V6.58A6.59,6.59,0,0,1,69.36,0h9.29a6.59,6.59,0,0,1,6.58,6.58v9.29A6.59,6.59,0,0,1,78.65,22.46ZM69.36.79a5.8,5.8,0,0,0-5.8,5.79v9.29a5.8,5.8,0,0,0,5.8,5.8h9.29a5.8,5.8,0,0,0,5.79-5.8V6.58A5.8,5.8,0,0,0,78.65.79Z"/></g></g></svg>