<svg xmlns="http://www.w3.org/2000/svg" xmlns:xlink="http://www.w3.org/1999/xlink" viewBox="0 0 1112.81 1953"><defs><style>.cls-1{fill:none;}.cls-2{fill:#1a1364;}.cls-3{clip-path:url(#clip-path);}.cls-4{fill:#465bed;}</style><clipPath id="clip-path"><rect class="cls-1" width="1112.81" height="1953"/></clipPath></defs><g id="Layer_2" data-name="Layer 2"><g id="Layer_1-2" data-name="Layer 1"><rect class="cls-2" width="1112.81" height="1953"/><g class="cls-3"><path class="cls-4" d="M14.71,1617.3c-18.1,0-31.2-15.37-45.07-31.64-16.14-18.94-32.83-38.52-59.62-38.52h-.58l.09-.57a58.2,58.2,0,0,0,.79-5.92v-.49h.5c146.16,0,201.81-42.91,215.38-56.06a152.41,152.41,0,0,0,35-51.09c5.66-13.59,13.11-44.65,13.42-60.18v-.27l8.74-5.4.11.75A198.34,198.34,0,0,0,197,1417a147.48,147.48,0,0,0,31.5,46.4c28.58,28.27,69.93,48.13,126.41,60.71,66.49,14.81,142.33,19.1,238.68,13.51,89.69-5.2,160.16-19,221.78-43.41,42.75-16.93,100.65-48.46,133.7-102.45l1-1.62L950,1392c0,.6-2.06,60.89,4,84.6,7,27.44,23,47.66,44.84,56.93,34.46,14.61,71.77-.38,90.94-10.62,3.81-2,7.78-4.35,12.38-7.22-16.92-.3-30.1-2.89-40.23-7.92-13.52-6.7-24.25-22.27-28.7-41.65-5.37-23.36-3.33-49.16-.62-71.31,2.95-24.1,8-55.16,21.29-81.69,7.86-15.74,19.55-29,32.92-37.34,15.42-9.63,32.15-12.07,48.35-7.06,17.82,5.51,29,19.76,33.36,42.33,3.75,19.69,1.74,42.46.41,57.53-.12,1.31-.23,2.65-.35,4-1.3,15.32-2.93,34.38-10,47.93-1.69,3.24-3,4.58-4.31,4.22-3.68-1.08-2.3-19.21-2.29-19.39,1.5-17,1.25-36.11-12-49.43-10.24-10.3-26.64-14.49-43.88-11.19a62.58,62.58,0,0,0-39.56,25.24,85.4,85.4,0,0,0-8.18,13.9l-.2.5a71.1,71.1,0,0,0,.69,8.59c4.07,21,17.13,36.39,35,41.19,15.06,4,32.35,5.31,51.37,3.73,31.73-2.63,58.5-14.09,81.84-35a145,145,0,0,0,10.36-11.27l1.42-1.68,1.91,17.33a89.92,89.92,0,0,1-17.52,64c-1.94,2.58-3.49,4.61-4.61,6l-6.16,7.43c-18.12,21.89-36.86,44.52-57.75,64.75-16.75,16.22-74.33,67.79-128.44,67.8-1.69,0-3.37,0-5.06-.15-21.16-1.3-39.15-11-53.46-28.71-15.47-19.17-24.3-46.19-26.26-80.29-.53-9.2-.68-18.5-.45-27.65-31,42.52-81.36,75.82-149.7,99-66.4,22.51-141.07,34.2-235,36.78-70.78,1.94-153.64.83-231.53-22.18-50.57-14.94-87.21-37.26-112-68.25-14.82-18.53-25.23-40.8-31.8-68-1.45,5.89-2.78,10.9-4.17,15.63C162.54,1488.11,121.64,1617.3,14.71,1617.3Zm-104.1-71.15c26.91.28,43.62,19.89,59.79,38.86,13.72,16.09,26.67,31.29,44.31,31.29,106.2,0,146.89-128.54,151.18-143.2,1.54-5.25,3-10.85,4.66-17.61l.49-2,.48,2.06c6.49,28,17,50.79,32.08,69.66,24.66,30.82,61.13,53,111.5,67.91,77.76,23,160.52,24.08,231.22,22.14,93.82-2.58,168.39-14.25,234.7-36.73,68.85-23.35,119.37-57,150.15-100l1-1.34,0,1.64c-.29,9.65-.15,19.47.41,29.19,2,33.89,10.71,60.71,26,79.72,14.13,17.52,31.88,27.06,52.75,28.34,55.13,3.41,115.53-50.71,132.73-67.37,20.85-20.19,39.57-42.8,57.68-64.67l6.15-7.42c1.11-1.4,2.66-3.42,4.59-6a88.93,88.93,0,0,0,17.32-63.27l-1.65-15a145.78,145.78,0,0,1-10.35,11.26c-23.53,21.09-50.49,32.62-82.45,35.27-19.13,1.59-36.54.33-51.71-3.76-18.2-4.9-31.54-20.58-35.68-42a71.4,71.4,0,0,1-.71-8.84v-.1l0-.09c.09-.25.18-.48.27-.67a86.71,86.71,0,0,1,8.27-14.07,63.55,63.55,0,0,1,40.19-25.64c17.55-3.35,34.29.93,44.77,11.47,13.53,13.62,13.8,33,12.28,50.23-.46,5.21-.48,17.74,1.57,18.34.26.07,1.19,0,3.14-3.72,7-13.38,8.6-32.33,9.9-47.55.11-1.37.23-2.72.34-4,1.33-15,3.34-37.7-.4-57.25-4.3-22.5-15-36.09-32.67-41.56-15.91-4.93-32.35-2.53-47.53,6.95-13.21,8.24-24.77,21.36-32.55,36.94-13.18,26.39-18.25,57.34-21.18,81.36-2.7,22.07-4.75,47.76.59,71,4.39,19.1,14.92,34.42,28.17,41,10.34,5.12,23.91,7.68,41.5,7.83h1.7l-1.44.91c-5.24,3.31-9.65,5.9-13.88,8.16-19.33,10.32-57,25.44-91.8,10.66-22.17-9.39-38.3-29.85-45.42-57.6-5.51-21.48-4.4-72.61-4.11-83-33.35,53.26-90.73,84.45-133.2,101.27-61.72,24.45-132.29,38.27-222.09,43.48-96.44,5.6-172.37,1.3-239-13.53-56.67-12.62-98.18-32.57-126.9-61a148.76,148.76,0,0,1-31.71-46.71,199.54,199.54,0,0,1-13.53-48.55l-7,4.31c-.4,15.72-7.84,46.68-13.49,60.28a153.59,153.59,0,0,1-35.18,51.42c-21,20.33-54.85,35.54-100.66,45.21-45.61,9.62-91.41,11.11-115,11.13C-88.77,1541.81-88.94,1543.24-89.39,1546.15Z"/><path class="cls-4" d="M324.2,1765.74a39.29,39.29,0,1,1,39.28-39.29A39.33,39.33,0,0,1,324.2,1765.74Zm0-77.58a38.29,38.29,0,1,0,38.28,38.29A38.34,38.34,0,0,0,324.2,1688.16Z"/><path class="cls-4" d="M426.14,1765.74a39.29,39.29,0,1,1,39.29-39.29A39.33,39.33,0,0,1,426.14,1765.74Zm0-77.58a38.29,38.29,0,1,0,38.29,38.29A38.34,38.34,0,0,0,426.14,1688.16Z"/><path class="cls-4" d="M-.33,1966.68c-18.1,0-31.19-15.37-45.06-31.64-16.14-18.93-32.83-38.51-59.62-38.51h-.58l.09-.58a59,59,0,0,0,.78-5.92v-.49h.49c146.17,0,201.81-42.91,215.39-56.06a152.41,152.41,0,0,0,35-51.09c5.66-13.59,13.11-44.65,13.42-60.18v-.27l8.75-5.4.11.75a197.86,197.86,0,0,0,13.57,49c12.24,28.19,61.22,120.17,177.21,120.17,139.78,0,207.05-109.9,229.16-146l1-1.62-.07,1.9c0,.61-2,60.89,4,84.6,7,27.44,23,47.66,44.84,56.94,34.46,14.61,71.77-.39,90.94-10.63,3.81-2,7.78-4.35,12.38-7.22-16.92-.3-30.09-2.89-40.23-7.91-13.52-6.7-24.25-22.28-28.71-41.66-5.36-23.36-3.32-49.15-.6-71.31,2.94-24.09,8-55.16,21.28-81.69,7.86-15.74,19.55-29,32.91-37.34,15.43-9.63,32.15-12.07,48.36-7.06,17.82,5.52,29,19.76,33.36,42.34,3.76,19.68,1.74,42.46.41,57.53-.12,1.3-.23,2.64-.35,4-1.3,15.32-2.93,34.39-10,48-1.7,3.24-3.07,4.58-4.31,4.21-3.67-1.07-2.3-19.2-2.28-19.38,1.49-17,1.24-36.11-12-49.44-10.24-10.3-26.65-14.48-43.88-11.19a62.53,62.53,0,0,0-39.56,25.25,85.15,85.15,0,0,0-8.18,13.9l-.2.49a71.1,71.1,0,0,0,.69,8.59c4.07,21,17.14,36.39,35,41.19,15.06,4,32.35,5.31,51.37,3.73,31.73-2.63,58.5-14.08,81.84-35a146.54,146.54,0,0,0,10.35-11.26l1.43-1.68L870,1756a90,90,0,0,1-17.52,64c-2,2.66-3.51,4.63-4.61,6l-5.72,6.9c-8.69,10.48-17.66,21.31-26.75,31.75,10,12.63,27.2,20.43,51,23.19,31.24,3.61,56.23-2.84,76.39-19.71a114.85,114.85,0,0,0,9.59-9.08c7.94-10.35,16.09-21.53,25.6-35.15,3.39-4.85,6.71-9.93,10.21-15.3,10.79-16.55,22-33.66,36.33-45.43,8.16-6.68,16-8.86,23.29-6.49,9.73,3.16,18.09,14.76,22.35,31,5.67,21.65,12.73,48.58,41.53,41.6,20.76-5,42.73-25.88,50-47.47,0-.09.08-.29.16-.58,1.27-4.63,3.27-10.76,6-10.35s3,5.61,2.88,11.2c0,.44,0,.79,0,1.05.27,18.71-2.36,37.49-7.42,53,23.55-8.2,40.67-19.13,52.3-33.4,10.1-12.38,16.21-35.47,18.37-44.81l.4-1.78c1.52-6.66,3.08-13.55,7.18-19l.12-.12,1.88-1.25.2,0a2.38,2.38,0,0,0,.38,0,1.58,1.58,0,0,1,1.23.34c1.84,1.84.61,42.07-3.14,60.69-4.44,30.86-13.92,55.87-28.18,74.32-17.17,22.2-44.11,38.32-80.08,47.9a1,1,0,0,1-1-.22c-2.36-2-1.48-19.51-.66-30.71a84.74,84.74,0,0,1-21.38,14.67c-11.17,5.35-21.11,6.05-29.52,2.1-14-6.61-21.26-25.07-24.84-39.39l-.5-2c-2.89-11.74-6.86-27.82-20.39-30.84-11.48-2.58-20.63,6.46-28.8,16.59-13,16.1-24.69,33.06-36,49.46-.58,1-1.14,1.92-1.7,2.72-3.23,4.65-6.68,9.6-10.23,14.44l-.56.79q-1.66,2.38-3.35,4.76a57.24,57.24,0,0,1-6.61,7.7l-.7-.71a56.67,56.67,0,0,0,6.5-7.57c1.12-1.58,2.23-3.17,3.34-4.75l.56-.81c3.56-4.83,7-9.77,10.23-14.42.54-.77,1.08-1.65,1.67-2.68,11.36-16.45,23.09-33.42,36.09-49.55,5.63-7,16.11-20,29.8-17,14.14,3.16,18.19,19.59,21.14,31.58l.5,2c3.52,14.11,10.6,32.28,24.3,38.72,8.12,3.83,17.77,3.12,28.65-2.09a84,84,0,0,0,22.07-15.38l.94-.91-.1,1.31c-1.34,17.7-1.26,29.93.2,31.15,35.83-9.5,62.59-25.5,79.62-47.53,14.15-18.3,23.57-43.16,28-73.87,3.76-18.67,4.82-57.69,3.41-59.83a1.59,1.59,0,0,0-.49,0h-.35l-1.5,1c-3.94,5.26-5.47,12-7,18.54l-.41,1.78c-2.17,9.42-8.34,32.68-18.56,45.22-11.92,14.61-29.48,25.75-53.71,34l-1,.33.32-1c5.23-15.59,8-34.64,7.68-53.63,0-.26,0-.63,0-1.07,0-2.45.12-9.89-2-10.2-.82-.14-2.57,1-4.93,9.63l-.18.63c-7.38,21.89-29.66,43-50.73,48.13a39.22,39.22,0,0,1-9.1,1.17c-22.24,0-28.49-23.88-33.63-43.49-4.17-15.93-12.28-27.26-21.69-30.32-7-2.26-14.47-.13-22.35,6.32-14.26,11.67-25.37,28.71-36.12,45.19-3.51,5.38-6.83,10.47-10.23,15.33-9.52,13.63-17.68,24.83-25.66,35.23a114.13,114.13,0,0,1-9.71,9.19c-20.38,17.06-45.62,23.59-77.15,19.94C842,1886,824.55,1878,814.38,1865l-.25-.32.27-.31c9.17-10.53,18.23-21.47,27-32l5.71-6.89c1.09-1.36,2.59-3.32,4.59-6A88.89,88.89,0,0,0,869,1756.13l-1.65-15A150,150,0,0,1,857,1752.37c-23.53,21.09-50.49,32.63-82.45,35.28-19.14,1.59-36.54.32-51.71-3.76-18.2-4.9-31.54-20.59-35.69-42a74,74,0,0,1-.7-8.83v-.1l0-.1c.09-.25.18-.48.27-.67a86.07,86.07,0,0,1,8.27-14.06,63.55,63.55,0,0,1,40.19-25.64c17.55-3.36,34.29.93,44.77,11.47,13.53,13.61,13.8,33,12.28,50.22-.52,5.92-.44,17.75,1.57,18.34.25.08,1.19,0,3.14-3.72,7-13.37,8.6-32.33,9.9-47.56.11-1.37.23-2.71.34-4,1.33-15,3.34-37.71-.4-57.25-4.29-22.5-15-36.1-32.67-41.57-15.92-4.93-32.35-2.52-47.53,7-13.21,8.24-24.77,21.36-32.55,36.94-13.18,26.39-18.24,57.35-21.18,81.36-2.7,22.07-4.74,47.76.59,71,4.39,19.09,14.92,34.41,28.17,41,10.34,5.12,23.91,7.69,41.5,7.83l1.7,0-1.44.91c-5.24,3.3-9.65,5.9-13.88,8.15-13.55,7.24-36.09,16.83-60.36,16.83a79.87,79.87,0,0,1-31.44-6.16c-22.17-9.4-38.3-29.86-45.42-57.61-5.51-21.46-4.4-72.56-4.11-83-15.32,24.86-39.56,60.56-75.41,90-44.35,36.42-96,54.88-153.62,54.88-116.59,0-165.82-92.44-178.13-120.77a199.29,199.29,0,0,1-13.53-48.55l-7,4.31c-.39,15.72-7.83,46.69-13.49,60.28a153.3,153.3,0,0,1-35.18,51.42c-21,20.33-54.85,35.54-100.65,45.21-45.62,9.62-91.42,11.11-115,11.13-.06.66-.22,2.09-.68,5,26.91.28,43.63,19.89,59.8,38.86,13.71,16.09,26.67,31.29,44.3,31.29,106.21,0,146.9-128.54,151.19-143.2l.95.28C147.5,1837.49,106.6,1966.68-.33,1966.68Z"/><path class="cls-4" d="M1029.6,1710.64a.75.75,0,0,1-.19,0c-1.44-.46-1.37-12-1.32-12.47.69-6.16,1.56-13.82,4.91-19.83,18.64-33.41,57.72-39.13,92.2-44.18,2.9-.42,5.78-.84,8.61-1.28a385.73,385.73,0,0,0,63.66-15c14.89-5,32.8-12.83,39.13-29.57h0c.44-1.16,1-2.33,1.85-2.15,1.82.39,1.53,8.61,1.52,8.69a74.93,74.93,0,0,1-4.41,22.15c-5.14,13.59-16.33,23.73-34.21,31-20.26,8.25-42,12.82-60.52,16.2-6.66,1.21-13.49,2.19-20.72,3.22-35.27,5-71.74,10.25-89.89,42.78A.71.71,0,0,1,1029.6,1710.64Zm207.94-122h0c-6.48,17.12-24.65,25.11-39.75,30.16a387.79,387.79,0,0,1-63.83,15c-2.83.43-5.71.86-8.62,1.28-34.25,5-73.06,10.69-91.47,43.68-3.25,5.83-4.1,13.38-4.78,19.45a64.24,64.24,0,0,0,.59,10.89c18.53-32.44,56.64-37.89,90.29-42.7,7.22-1,14-2,20.68-3.22,18.51-3.37,40.14-7.92,60.32-16.14,17.61-7.17,28.62-17.12,33.66-30.43a74.31,74.31,0,0,0,4.35-21.86c.1-1.75-.13-6.67-.71-7.58A4.64,4.64,0,0,0,1237.54,1588.67Z"/><path class="cls-4" d="M870.16,1966a139.89,139.89,0,0,1-19.5-1.43c-39-5.53-61.52-29.63-63.33-67.85l1,0c1.78,37.68,24,61.44,62.47,66.9,31.72,4.49,57.9-1.63,80-18.73a118.47,118.47,0,0,0,17-16.32l.75.66a118.8,118.8,0,0,1-17.13,16.45C913.8,1959.23,893.61,1966,870.16,1966Z"/><path class="cls-4" d="M655.55,1966c-1.7,0-3.38,0-5.06-.15-21.17-1.3-39.16-11-53.47-28.71-15.47-19.17-24.3-46.18-26.26-80.29l1-.06c2,33.9,10.71,60.72,26,79.73,14.13,17.52,31.88,27,52.75,28.33,55.14,3.41,115.53-50.71,132.74-67.37.9-.88,1.79-1.77,2.68-2.67l1.44-1.44.82-.82,0,1.16c0,.36,0,.71,0,1.06,0,.62,0,1.25.05,1.87l-1,0c0-.58,0-1.17-.05-1.76l-.6.6c-.89.9-1.79,1.8-2.7,2.68C767.23,1914.43,709.66,1966,655.55,1966Z"/><path class="cls-4" d="M346.19,1966c-122.13,0-182-129.57-190.18-159-1.43,5.82-2.81,11-4.2,15.71l-.95-.28c1.53-5.24,3.06-11,4.65-17.61l.5-2,.48,2.06c5.77,24.88,65.27,160.12,189.7,160.12,55.34,0,105.11-17.07,148-50.73,35.32-27.76,57.64-60,71-79.33,2-2.92,3.76-5.44,5.33-7.64l1-1.33,0,1.64c-.29,9.66-.15,19.48.41,29.18l-1,.06c-.53-9.18-.68-18.47-.46-27.63-1.31,1.87-2.75,4-4.37,6.29-13.36,19.33-35.73,51.69-71.17,79.54C451.74,1948.86,401.76,1966,346.19,1966Z"/></g></g></g></svg>