<svg xmlns="http://www.w3.org/2000/svg" viewBox="0 0 1351.9 800.88"><defs><style>.cls-1{fill:#465bed;}</style></defs><g id="Layer_2" data-name="Layer 2"><g id="Layer_1-2" data-name="Layer 1"><path class="cls-1" d="M120.3,351.13c-18.1,0-31.2-15.37-45.07-31.64C59.1,300.55,42.41,281,15.62,281H15l.09-.57a58.2,58.2,0,0,0,.79-5.92V274h.49c146.17,0,201.81-42.91,215.38-56.06a152.29,152.29,0,0,0,35-51.09c5.65-13.59,13.11-44.65,13.42-60.18v-.27l8.74-5.4.11.75a199.21,199.21,0,0,0,13.57,49.05,147.65,147.65,0,0,0,31.5,46.4c28.58,28.27,69.94,48.13,126.42,60.71C527,272.7,602.83,277,699.18,271.4c89.7-5.21,160.17-19,221.78-43.41,42.76-16.93,100.65-48.46,133.7-102.45l1-1.62-.07,1.9c0,.6-2.06,60.89,4,84.6,7.05,27.44,23,47.66,44.84,56.93,34.46,14.61,71.77-.39,91-10.63,3.81-2,7.78-4.34,12.38-7.21-16.93-.3-30.1-2.9-40.24-7.92-13.52-6.7-24.25-22.27-28.7-41.66-5.37-23.35-3.32-49.15-.61-71.3,3-24.1,8-55.16,21.28-81.69,7.86-15.74,19.55-29,32.92-37.34,15.43-9.64,32.15-12.07,48.35-7.06,17.82,5.51,29,19.76,33.36,42.33,3.76,19.69,1.75,42.46.42,57.53-.12,1.31-.23,2.65-.35,4-1.31,15.32-2.93,34.38-10,47.93-1.69,3.24-3,4.58-4.3,4.22-3.68-1.08-2.31-19.21-2.29-19.39,1.5-17,1.25-36.11-12-49.43-10.24-10.31-26.64-14.49-43.87-11.19a62.58,62.58,0,0,0-39.57,25.24,86.07,86.07,0,0,0-8.17,13.9c-.07.15-.14.32-.21.5a75.06,75.06,0,0,0,.69,8.58c4.07,21,17.14,36.4,35,41.2,15.07,4.05,32.35,5.31,51.38,3.73,31.73-2.63,58.5-14.09,81.84-35A146.57,146.57,0,0,0,1333,125.43l1.43-1.68,1.9,17.33a89.92,89.92,0,0,1-17.52,64c-1.93,2.58-3.48,4.61-4.61,6l-6.16,7.43c-18.12,21.89-36.86,44.52-57.75,64.75-16.75,16.22-74.32,67.79-128.43,67.8-1.69,0-3.38-.05-5.06-.16-21.16-1.29-39.15-10.95-53.47-28.7C1047.88,303,1039,276,1037.08,241.91c-.53-9.2-.68-18.5-.45-27.66-31,42.53-81.35,75.83-149.7,99-66.4,22.51-141.07,34.2-235,36.78-70.78,1.94-153.63.83-231.53-22.18-50.57-14.94-87.2-37.26-112-68.25-14.83-18.53-25.24-40.8-31.8-68-1.45,5.89-2.79,10.9-4.18,15.63C268.13,221.94,227.23,351.13,120.3,351.13ZM16.2,280c26.91.28,43.63,19.89,59.8,38.86,13.71,16.09,26.66,31.29,44.3,31.29,106.2,0,146.89-128.54,151.18-143.2,1.54-5.25,3-10.85,4.66-17.61l.5-2,.47,2.06c6.5,28,17,50.79,32.09,69.66,24.66,30.82,61.13,53,111.5,67.91,77.76,23,160.52,24.08,231.22,22.14,93.81-2.58,168.39-14.25,234.69-36.73,68.85-23.35,119.37-57,150.16-99.95l1-1.34,0,1.64c-.28,9.65-.15,19.47.41,29.19,2,33.89,10.71,60.71,26,79.72,14.13,17.52,31.88,27.06,52.75,28.34,55.13,3.4,115.54-50.71,132.74-67.37,20.85-20.19,39.57-42.8,57.67-64.67q3.08-3.7,6.16-7.42c1.11-1.4,2.65-3.42,4.58-6a88.94,88.94,0,0,0,17.33-63.27l-1.65-15a146.62,146.62,0,0,1-10.36,11.25c-23.52,21.1-50.48,32.63-82.44,35.28-19.14,1.59-36.54.33-51.72-3.76-18.2-4.9-31.54-20.59-35.68-42a75.34,75.34,0,0,1-.71-8.83V118l0-.09c.09-.25.18-.48.27-.67a87.44,87.44,0,0,1,8.27-14.07,63.58,63.58,0,0,1,40.19-25.64c17.56-3.35,34.3.93,44.77,11.47,13.53,13.62,13.8,33,12.29,50.23-.47,5.21-.49,17.73,1.57,18.34.25.07,1.19,0,3.14-3.72,7-13.38,8.59-32.33,9.89-47.56.12-1.36.23-2.71.35-4,1.33-15,3.33-37.7-.4-57.25-4.3-22.5-15-36.09-32.67-41.57-15.92-4.92-32.35-2.52-47.53,7-13.21,8.25-24.77,21.37-32.55,37-13.19,26.39-18.25,57.34-21.19,81.36-2.7,22.07-4.74,47.76.59,71,4.39,19.09,14.92,34.42,28.18,41,10.33,5.13,23.9,7.69,41.49,7.84h1.71l-1.44.91c-5.25,3.31-9.66,5.9-13.88,8.16-19.34,10.32-57,25.44-91.81,10.66-22.16-9.39-38.29-29.85-45.42-57.6-5.51-21.48-4.4-72.61-4.11-83-33.34,53.26-90.73,84.45-133.2,101.27C859.62,253.37,789,267.19,699.24,272.4c-96.44,5.6-172.37,1.3-238.95-13.53-56.67-12.62-98.18-32.57-126.9-61a148.62,148.62,0,0,1-31.72-46.71,199.67,199.67,0,0,1-13.53-48.55l-7,4.31c-.39,15.72-7.83,46.68-13.49,60.28a153.45,153.45,0,0,1-35.18,51.42c-21,20.33-54.85,35.54-100.66,45.21C86.22,273.47,40.42,275,16.88,275,16.82,275.64,16.66,277.07,16.2,280Z"/><path class="cls-1" d="M429.79,499.57a39.29,39.29,0,1,1,39.29-39.29A39.33,39.33,0,0,1,429.79,499.57Zm0-77.58a38.29,38.29,0,1,0,38.29,38.29A38.34,38.34,0,0,0,429.79,422Z"/><path class="cls-1" d="M531.73,499.57A39.29,39.29,0,1,1,571,460.28,39.33,39.33,0,0,1,531.73,499.57Zm0-77.58A38.29,38.29,0,1,0,570,460.28,38.33,38.33,0,0,0,531.73,422Z"/><path class="cls-1" d="M676,800.88a39.29,39.29,0,1,1,39.29-39.29A39.33,39.33,0,0,1,676,800.88Zm0-77.58a38.29,38.29,0,1,0,38.29,38.29A38.34,38.34,0,0,0,676,723.3Z"/><path class="cls-1" d="M676,800.88a39.29,39.29,0,1,1,39.29-39.29A39.33,39.33,0,0,1,676,800.88Zm0-77.58a38.29,38.29,0,1,0,38.29,38.29A38.34,38.34,0,0,0,676,723.3Z"/><path class="cls-1" d="M570.52,800.88a39.29,39.29,0,1,1,39.29-39.29A39.33,39.33,0,0,1,570.52,800.88Zm0-77.58a38.29,38.29,0,1,0,38.29,38.29A38.34,38.34,0,0,0,570.52,723.3Z"/><path class="cls-1" d="M105.27,700.51c-18.1,0-31.2-15.37-45.07-31.64C44.06,649.93,27.37,630.36.58,630.36H0l.09-.58a58.2,58.2,0,0,0,.79-5.92v-.49h.5c146.16,0,201.81-42.91,215.38-56.06a152.12,152.12,0,0,0,35-51.09c5.66-13.59,13.11-44.65,13.42-60.18v-.27l8.74-5.4.11.75a199,199,0,0,0,13.57,49.05c12.25,28.19,61.23,120.17,177.22,120.17,139.78,0,207.05-109.9,229.15-146l1-1.62-.06,1.9c0,.61-2.06,60.89,4,84.6,7,27.44,23,47.66,44.84,56.94,34.46,14.61,71.77-.39,90.95-10.63,3.81-2,7.77-4.35,12.38-7.22-16.92-.3-30.1-2.89-40.24-7.91-13.52-6.7-24.24-22.28-28.7-41.66-5.37-23.36-3.32-49.16-.61-71.31,3-24.1,8-55.16,21.28-81.69,7.86-15.74,19.55-29,32.92-37.34,15.43-9.63,32.15-12.07,48.35-7.06,17.82,5.52,29.05,19.76,33.36,42.34,3.76,19.68,1.75,42.46.41,57.52-.11,1.31-.23,2.65-.34,4-1.31,15.32-2.93,34.39-10,47.95-1.69,3.23-3.06,4.58-4.3,4.21-3.68-1.07-2.31-19.2-2.29-19.38,1.5-17,1.25-36.12-12-49.44C874.64,428.22,858.24,424,841,427.33a62.53,62.53,0,0,0-39.56,25.24,84.56,84.56,0,0,0-8.18,13.9c-.07.15-.14.32-.21.5a73.22,73.22,0,0,0,.69,8.59c4.07,21,17.14,36.39,35,41.19,15.07,4,32.35,5.31,51.37,3.73,31.74-2.63,58.51-14.08,81.85-35a148.64,148.64,0,0,0,10.35-11.26l1.42-1.69,1.91,17.33a89.92,89.92,0,0,1-17.52,64c-2,2.67-3.51,4.64-4.61,6l-5.72,6.9c-8.68,10.48-17.66,21.31-26.74,31.75,10,12.63,27.2,20.43,51,23.19,31.24,3.61,56.23-2.84,76.39-19.72a113.05,113.05,0,0,0,9.59-9.07c8-10.35,16.09-21.53,25.61-35.15,3.39-4.85,6.7-9.93,10.2-15.31,10.79-16.54,22-33.65,36.33-45.42,8.16-6.68,16-8.86,23.29-6.5,9.74,3.17,18.09,14.77,22.35,31,5.67,21.64,12.73,48.57,41.53,41.6,20.77-5,42.74-25.88,50-47.47,0-.09.08-.29.16-.58,1.26-4.63,3.27-10.77,6-10.35s3,5.61,2.88,11.2c0,.44,0,.79,0,1,.28,18.72-2.35,37.49-7.41,53,23.55-8.2,40.66-19.13,52.29-33.4,10.1-12.38,16.21-35.47,18.37-44.81l.41-1.78c1.51-6.66,3.07-13.55,7.17-19l.13-.12,1.88-1.25.19,0a2.38,2.38,0,0,0,.38,0,1.57,1.57,0,0,1,1.23.34c1.84,1.84.61,42.07-3.14,60.69-4.43,30.86-13.92,55.87-28.18,74.31-17.16,22.21-44.1,38.33-80.08,47.91a1.05,1.05,0,0,1-1-.22c-2.35-2-1.47-19.51-.66-30.71a84.74,84.74,0,0,1-21.38,14.67c-11.17,5.35-21.1,6.05-29.52,2.09-14.05-6.61-21.26-25.06-24.84-39.38l-.49-2c-2.9-11.74-6.86-27.82-20.4-30.84-11.47-2.58-20.63,6.46-28.79,16.59-13,16.1-24.7,33.06-36,49.46-.58,1-1.14,1.92-1.69,2.72-3.23,4.65-6.68,9.6-10.24,14.44l-.55.79c-1.12,1.59-2.23,3.18-3.35,4.76a58,58,0,0,1-6.61,7.7l-.7-.71a56.58,56.58,0,0,0,6.49-7.57q1.68-2.37,3.35-4.76l.56-.8c3.56-4.83,7-9.77,10.23-14.42.53-.78,1.08-1.65,1.66-2.68,11.37-16.45,23.09-33.43,36.1-49.56,5.63-7,16.11-20,29.79-16.94,14.14,3.16,18.19,19.59,21.15,31.58l.49,2c3.53,14.11,10.6,32.28,24.3,38.72,8.13,3.82,17.77,3.12,28.66-2.09a84,84,0,0,0,22.06-15.38l1-.91-.1,1.31c-1.35,17.7-1.27,29.93.2,31.15,35.82-9.5,62.58-25.5,79.61-47.53,14.15-18.3,23.57-43.16,28-73.87,3.77-18.67,4.82-57.69,3.41-59.83a1.55,1.55,0,0,0-.48,0h-.36l-1.5,1c-3.93,5.26-5.46,12-7,18.54l-.4,1.78c-2.18,9.42-8.34,32.68-18.57,45.22-11.91,14.61-29.48,25.75-53.7,34l-1,.33.32-1c5.23-15.59,8-34.64,7.68-53.63,0-.26,0-.63,0-1.07,0-2.45.12-9.89-2-10.2-.81-.14-2.56,1-4.93,9.63-.08.31-.14.53-.18.63-7.37,21.89-29.66,43-50.72,48.13a39.24,39.24,0,0,1-9.11,1.17c-22.23,0-28.48-23.88-33.62-43.49-4.18-15.93-12.29-27.26-21.7-30.32-6.94-2.26-14.46-.14-22.35,6.31-14.26,11.68-25.37,28.72-36.12,45.2-3.51,5.38-6.82,10.47-10.22,15.33-9.52,13.63-17.68,24.83-25.67,35.23a112.65,112.65,0,0,1-9.71,9.19c-20.38,17.06-45.61,23.59-77.14,19.94-24.32-2.81-41.8-10.85-52-23.89l-.26-.32.27-.31c9.17-10.53,18.24-21.47,27-32l5.72-6.89c1.08-1.36,2.59-3.32,4.58-6A89,89,0,0,0,974.62,490L973,475a149.48,149.48,0,0,1-10.34,11.25c-23.53,21.09-50.5,32.63-82.45,35.28-19.14,1.59-36.54.32-51.72-3.77-18.2-4.89-31.54-20.58-35.68-42a75.92,75.92,0,0,1-.71-8.83v-.1l0-.1c.09-.25.18-.48.27-.67A86.79,86.79,0,0,1,800.63,452a63.54,63.54,0,0,1,40.19-25.64c17.55-3.36,34.29.93,44.77,11.47,13.53,13.61,13.81,33,12.29,50.22-.53,5.92-.45,17.75,1.57,18.34.25.08,1.19,0,3.13-3.72,7-13.38,8.6-32.33,9.9-47.57.12-1.36.23-2.7.35-4,1.33-15,3.33-37.71-.4-57.26-4.3-22.49-15-36.09-32.67-41.56-15.92-4.93-32.35-2.52-47.53,7-13.21,8.24-24.77,21.36-32.55,36.94-13.19,26.39-18.25,57.35-21.19,81.36-2.7,22.07-4.74,47.76.59,71,4.39,19.1,14.92,34.42,28.17,41,10.34,5.12,23.92,7.68,41.5,7.83l1.71,0-1.44.91c-5.25,3.3-9.66,5.9-13.88,8.15-13.55,7.24-36.1,16.83-60.37,16.83a80.08,80.08,0,0,1-31.44-6.16c-22.17-9.4-38.29-29.86-45.42-57.61-5.5-21.46-4.4-72.56-4.11-83-15.31,24.87-39.56,60.57-75.41,90-44.34,36.42-96,54.88-153.61,54.88-116.6,0-165.83-92.44-178.14-120.77A199.74,199.74,0,0,1,273.11,452l-7,4.31c-.4,15.72-7.84,46.68-13.49,60.28A153.45,153.45,0,0,1,217.46,568c-21,20.33-54.85,35.54-100.66,45.21-45.61,9.62-91.41,11.11-115,11.13-.05.66-.22,2.09-.67,5,26.91.28,43.62,19.89,59.79,38.86,13.72,16.09,26.67,31.29,44.31,31.29,106.2,0,146.89-128.54,151.18-143.2l1,.28C253.1,571.32,212.2,700.51,105.27,700.51Z"/><path class="cls-1" d="M1135.2,444.47a.68.68,0,0,1-.19,0c-1.44-.46-1.38-12-1.32-12.47.69-6.16,1.55-13.82,4.9-19.83,18.65-33.41,57.72-39.13,92.2-44.18,2.91-.42,5.78-.84,8.61-1.28a385.61,385.61,0,0,0,63.67-15c14.89-5,32.79-12.83,39.13-29.57h0c.44-1.16,1-2.33,1.85-2.15,1.81.39,1.52,8.61,1.52,8.69a75.25,75.25,0,0,1-4.41,22.15c-5.14,13.59-16.34,23.73-34.22,31-20.26,8.25-42,12.82-60.52,16.2-6.65,1.21-13.48,2.18-20.71,3.22-35.27,5-71.75,10.25-89.9,42.78A.7.7,0,0,1,1135.2,444.47Zm207.93-122h0c-6.48,17.12-24.65,25.11-39.75,30.15a386.52,386.52,0,0,1-63.83,15c-2.83.43-5.71.86-8.61,1.28-34.25,5-73.07,10.69-91.47,43.68-3.26,5.83-4.11,13.38-4.79,19.45a65.12,65.12,0,0,0,.59,10.88c18.54-32.43,56.65-37.88,90.3-42.69,7.22-1,14-2,20.68-3.22,18.5-3.37,40.14-7.92,60.31-16.14,17.62-7.17,28.63-17.12,33.66-30.43a74,74,0,0,0,4.35-21.86c.1-1.75-.13-6.68-.71-7.58A5.18,5.18,0,0,0,1343.13,322.5Z"/><path class="cls-1" d="M975.75,699.79a139.64,139.64,0,0,1-19.49-1.43c-39-5.53-61.52-29.63-63.34-67.85l1,0c1.79,37.68,24,61.44,62.48,66.9,31.72,4.49,57.89-1.63,80-18.73a118.43,118.43,0,0,0,17-16.32l.76.65a119.39,119.39,0,0,1-17.13,16.46C1019.39,693.06,999.21,699.79,975.75,699.79Z"/><path class="cls-1" d="M761.14,699.83c-1.69,0-3.37-.05-5.06-.15-21.16-1.3-39.15-11-53.47-28.71-15.46-19.17-24.3-46.18-26.26-80.29l1-.06c1.95,33.9,10.71,60.72,26,79.72,14.13,17.53,31.88,27.06,52.75,28.34,55.14,3.41,115.54-50.71,132.74-67.37.91-.88,1.8-1.77,2.68-2.67L893,627.2l.82-.82,0,1.16c0,.35,0,.71,0,1.06,0,.62,0,1.24,0,1.86l-1,0c0-.58,0-1.18,0-1.77l-.6.61c-.89.9-1.78,1.8-2.69,2.68C872.82,648.25,815.25,699.83,761.14,699.83Z"/><path class="cls-1" d="M451.79,699.83c-122.13,0-182-129.57-190.18-159-1.44,5.82-2.81,11-4.2,15.71l-1-.28c1.54-5.24,3.06-11,4.66-17.61l.49-2.05.48,2.06c5.77,24.88,65.28,160.12,189.71,160.12,55.33,0,105.11-17.07,148-50.73,35.32-27.76,57.63-60.05,71-79.33,2-2.92,3.76-5.44,5.34-7.64l1-1.33,0,1.64c-.28,9.66-.15,19.48.41,29.18l-1,.06c-.52-9.18-.68-18.47-.45-27.63-1.32,1.87-2.76,4-4.37,6.28-13.37,19.34-35.74,51.7-71.18,79.55C557.34,682.69,507.35,699.83,451.79,699.83Z"/></g></g></svg>