<svg xmlns="http://www.w3.org/2000/svg" width="333.397" height="80.586" viewBox="0 0 333.397 80.586">
  <g id="Group_7" data-name="Group 7" transform="translate(-573.57 -1009.86)">
    <path id="Path_27" data-name="Path 27" d="M574.477,1042.865l-.907-5.085h9.3a5.136,5.136,0,0,0,2.057-.292,1.724,1.724,0,0,0,.794-.647l1.36,4.34a1.363,1.363,0,0,1-.826.988,5.792,5.792,0,0,1-1.668.534,10.17,10.17,0,0,1-1.717.162Zm3.984-11.595,3.984-5.15,5.7,10.268a3.3,3.3,0,0,0,.713.907,1.885,1.885,0,0,0,.81.389,5.322,5.322,0,0,0,1.1.1h.324v5.085h-.324a15.922,15.922,0,0,1-1.976-.113,5.957,5.957,0,0,1-1.733-.486,6.2,6.2,0,0,1-1.636-1.117,10.664,10.664,0,0,1-1.651-2.04l-5.312-7.839Z" fill="#fff"/>
    <path id="Path_28" data-name="Path 28" d="M591.093,1037.78h.324v5.085h-.324q-.971,0-.972-2.526Q590.121,1037.78,591.093,1037.78Zm0,5.085v-5.085h4.5a12.608,12.608,0,0,0,.228-1.49q.1-.939.161-1.9a14.241,14.241,0,0,0,.033-1.6l6.089-2.138q-.584,2.364-1.149,4.421a37.009,37.009,0,0,1-1.328,3.952,25.39,25.39,0,0,1-1.96,3.838h-6.576Zm3.724,8.713-3.4-3.466,3.206-3.434,3.4,3.434Zm5.782-9.15a11.363,11.363,0,0,1-2.575-1.036q-1.036-.6-1.781-1.117l2.753-3.207a5.551,5.551,0,0,0,1.069.389,9.272,9.272,0,0,0,1.36.243,14.362,14.362,0,0,0,1.555.081h1.393v5.085a13.959,13.959,0,0,1-3.773-.438Zm-.081,9.15-3.4-3.466,3.239-3.434,3.4,3.434Z" fill="#fff"/>
    <path id="Path_29" data-name="Path 29" d="M604.373,1037.78h.324v5.085h-.324q-.97,0-.972-2.526Q603.4,1037.78,604.373,1037.78Zm0,5.085v-5.085h3.239a7.4,7.4,0,0,1-.454-1.264,7,7,0,0,1-.227-1.879,6.776,6.776,0,0,1,1.021-3.773,6.477,6.477,0,0,1,2.866-2.4,10.549,10.549,0,0,1,4.341-.826,13.04,13.04,0,0,1,2.979.34,11.276,11.276,0,0,1,2.592.924l-2.073,4.5a10.823,10.823,0,0,0-1.766-.534,8.478,8.478,0,0,0-1.732-.179,3.068,3.068,0,0,0-2.3.745,2.525,2.525,0,0,0-.713,1.814,2.118,2.118,0,0,0,.405,1.23,2.763,2.763,0,0,0,1.312.939,6.689,6.689,0,0,0,2.4.356h4.566v5.085H604.373Z" fill="#fff"/>
    <path id="Path_30" data-name="Path 30" d="M642.4,1042.865q-4.859,0-6.947-1.766a6.149,6.149,0,0,1-2.09-4.972,12.264,12.264,0,0,1,.519-3.271,19.755,19.755,0,0,1,1.846-4.211l3.822,1.685a21.557,21.557,0,0,0-.745,2.478,8.552,8.552,0,0,0-.227,1.83,3.016,3.016,0,0,0,.551,1.943,2.821,2.821,0,0,0,1.539.939,8.977,8.977,0,0,0,2.283.26h16.811v5.085H642.4Zm1.523-9.75v-3.238h.939a1.926,1.926,0,0,1-.227-.535,2.753,2.753,0,0,1-.1-.761,3.238,3.238,0,0,1,1.166-2.624,4.653,4.653,0,0,1,3.077-.972,6.168,6.168,0,0,1,1.555.194,5.692,5.692,0,0,1,1.328.519l-1.2,2.883a4.007,4.007,0,0,0-.7-.243,2.865,2.865,0,0,0-.664-.081,1.412,1.412,0,0,0-.875.227.7.7,0,0,0,.017,1.15,2.425,2.425,0,0,0,1.344.243h2.332v3.238Zm12.5,9.75V1018.9h5.215v23.969Zm4.243-5.085h3.887v5.085h-3.887Z" fill="#fff"/>
    <path id="Path_31" data-name="Path 31" d="M664.555,1037.78h.324v5.085h-.324q-.97,0-.972-2.526Q663.583,1037.78,664.555,1037.78Zm0,5.085v-5.085H669.8a12.452,12.452,0,0,0,.227-1.49q.1-.939.162-1.9a13.97,13.97,0,0,0,.032-1.6l6.09-2.138q-.583,2.364-1.15,4.421a37.007,37.007,0,0,1-1.327,3.952,25.384,25.384,0,0,1-1.96,3.838h-7.321Zm5.959-14.09-3.4-3.434,3.207-3.466,3.4,3.466Zm7.645,14.09a14.149,14.149,0,0,1-3.79-.438,10.993,10.993,0,0,1-2.575-1.036q-1.02-.6-1.766-1.117l2.688-3.207a6.552,6.552,0,0,0,1.1.389,9.3,9.3,0,0,0,1.36.243,14.67,14.67,0,0,0,1.587.081h2.1v5.085h-.711Zm-1.944-14.09-3.4-3.434,3.239-3.466,3.4,3.466Z" fill="#fff"/>
    <path id="Path_32" data-name="Path 32" d="M678.871,1037.78h.324v5.085h-.324q-.97,0-.972-2.526Q677.9,1037.78,678.871,1037.78Zm0,5.085v-5.085h3.142V1018.9h5.215v23.969h-8.357Zm7.385-5.085h3.887v5.085h-3.887Z" fill="#fff"/>
    <path id="Path_33" data-name="Path 33" d="M690.143,1037.78h.324v5.085h-.324q-.971,0-.972-2.526Q689.171,1037.78,690.143,1037.78Zm0,5.085v-5.085h6.349a10.392,10.392,0,0,0-1-2.526,18.765,18.765,0,0,0-1.879-2.818l4.664-4.762a25.693,25.693,0,0,1,1.685,4.049,16.007,16.007,0,0,1,.713,4.939,19.244,19.244,0,0,1-1.2,6.2h-9.329Zm1.653-18.527V1021.1h.938a1.994,1.994,0,0,1-.227-.534,2.8,2.8,0,0,1-.1-.762,3.237,3.237,0,0,1,1.166-2.623,4.648,4.648,0,0,1,3.077-.972,6.124,6.124,0,0,1,1.555.194,5.71,5.71,0,0,1,1.328.518l-1.2,2.883a3.877,3.877,0,0,0-.7-.242,2.865,2.865,0,0,0-.664-.081,1.4,1.4,0,0,0-.874.227.7.7,0,0,0,.016,1.149,2.428,2.428,0,0,0,1.345.243H699.8v3.239Z" fill="#fff"/>
    <path id="Path_34" data-name="Path 34" d="M711,1042.865a10.455,10.455,0,0,1-2.786-.324,4.632,4.632,0,0,1-1.927-1.02,4.2,4.2,0,0,1-1.134-1.8,8.353,8.353,0,0,1-.372-2.656V1018.9H710v16.292a6.484,6.484,0,0,0,.1,1.215,1.763,1.763,0,0,0,.356.81,1.4,1.4,0,0,0,.729.438,4.814,4.814,0,0,0,1.247.13h1.264v5.085H711Z" fill="#fff"/>
    <path id="Path_35" data-name="Path 35" d="M713.691,1037.78h.324v5.085h-.324q-.97,0-.972-2.526Q712.719,1037.78,713.691,1037.78Zm0,5.085v-5.085h4.146q.972,0,1.6-.049a12.393,12.393,0,0,0,1.264-.162q.631-.112,1.6-.275l2.4,4.535a24.907,24.907,0,0,1-3.773.761,33.46,33.46,0,0,1-4.324.275h-2.917Zm19.531,0q-1.813,0-3.271-.017a22.644,22.644,0,0,1-2.7-.178,12.9,12.9,0,0,1-2.381-.534,10.617,10.617,0,0,1-2.283-1.085,17.565,17.565,0,0,1-2.446-1.879l-3.887-3.53v-6.316a16.272,16.272,0,0,1,2.575-.858q1.473-.372,3-.6a18.843,18.843,0,0,1,2.721-.227,12.474,12.474,0,0,1,3.822.551,6.09,6.09,0,0,1,2.737,1.685,4.2,4.2,0,0,1,1.021,2.915,6.512,6.512,0,0,1-.26,1.83,9.073,9.073,0,0,1-.7,1.717,10.623,10.623,0,0,1-.988,1.538,1.751,1.751,0,0,1,.389-.081c.13-.011.248-.016.356-.016h3.109v5.085Zm-8.68-5.312a14.076,14.076,0,0,0,1.215-1.166,5.6,5.6,0,0,0,.842-1.166,2.372,2.372,0,0,0,.309-1.1,1.157,1.157,0,0,0-.228-.632,1.663,1.663,0,0,0-.745-.567,3.554,3.554,0,0,0-1.393-.227q-.81,0-2.008.113a12.514,12.514,0,0,0-2.138.373l2.979,3.142a7.463,7.463,0,0,1,.632.647c.184.217.361.411.534.583Z" fill="#fff"/>
    <path id="Path_36" data-name="Path 36" d="M734.032,1037.78h.324v5.085h-.324q-.97,0-.972-2.526Q733.06,1037.78,734.032,1037.78Zm0,5.085v-5.085h3.142V1018.9h5.215v23.969h-8.357Z" fill="#fff"/>
    <path id="Path_37" data-name="Path 37" d="M753.6,1027.934a5.7,5.7,0,0,1,2.785.729,7.124,7.124,0,0,1,2.349,2.154,11.156,11.156,0,0,1,1.6,3.5,17.62,17.62,0,0,1,.583,4.761,15.517,15.517,0,0,1-.308,3.013,13.908,13.908,0,0,1-.972,3.028,9.526,9.526,0,0,1-1.765,2.64,8.172,8.172,0,0,1-2.688,1.863,9.22,9.22,0,0,1-3.726.7,11.754,11.754,0,0,1-3.514-.551,8.772,8.772,0,0,1-3.32-1.976l1.685-3.4q.939.225,2.072.438a14.349,14.349,0,0,0,2.592.21,11.641,11.641,0,0,0,1.846-.162,4.214,4.214,0,0,0,3.4-2.979q-.939.131-1.717.194c-.518.044-.961.064-1.328.064a11.188,11.188,0,0,1-3.158-.389,5.577,5.577,0,0,1-2.138-1.117,4.386,4.386,0,0,1-1.214-1.749,6.262,6.262,0,0,1-.389-2.251,10.1,10.1,0,0,1,.5-3.158,9.478,9.478,0,0,1,1.457-2.8,7.232,7.232,0,0,1,2.316-2.009A6.238,6.238,0,0,1,753.6,1027.934Zm-2.527,7.643a1.39,1.39,0,0,0,.275.875,1.641,1.641,0,0,0,.811.534,4.172,4.172,0,0,0,1.312.178,10.277,10.277,0,0,0,1.457-.1,10.014,10.014,0,0,0,1.166-.227,6.823,6.823,0,0,0-.453-1.636,4.8,4.8,0,0,0-.972-1.539,1.978,1.978,0,0,0-1.49-.647,1.723,1.723,0,0,0-1.036.356,2.557,2.557,0,0,0-.777.939,2.789,2.789,0,0,0-.292,1.263Z" fill="#fff"/>
    <path id="Path_38" data-name="Path 38" d="M782.812,1042.865q-4.859,0-6.947-1.766a6.149,6.149,0,0,1-2.09-4.972,12.264,12.264,0,0,1,.519-3.271,19.752,19.752,0,0,1,1.846-4.211l3.822,1.685a21.569,21.569,0,0,0-.745,2.478,8.552,8.552,0,0,0-.227,1.83,3.016,3.016,0,0,0,.551,1.943,2.821,2.821,0,0,0,1.539.939,8.977,8.977,0,0,0,2.283.26h16.811v5.085H782.812Zm1.523-9.75v-3.238h.939a1.928,1.928,0,0,1-.227-.535,2.753,2.753,0,0,1-.1-.761,3.239,3.239,0,0,1,1.166-2.624,4.654,4.654,0,0,1,3.077-.972,6.168,6.168,0,0,1,1.555.194,5.693,5.693,0,0,1,1.328.519l-1.2,2.883a4.011,4.011,0,0,0-.7-.243,2.865,2.865,0,0,0-.664-.081,1.412,1.412,0,0,0-.875.227.7.7,0,0,0,.017,1.15,2.425,2.425,0,0,0,1.344.243h2.332v3.238Zm12.5,9.75V1018.9h5.215v23.969Zm4.243-5.085h3.887v5.085h-3.887Z" fill="#fff"/>
    <path id="Path_39" data-name="Path 39" d="M804.968,1037.78h.324v5.085h-.324q-.971,0-.972-2.526Q804,1037.78,804.968,1037.78Zm0,5.085v-5.085h3.142V1018.9h5.215v23.969h-8.357Z" fill="#fff"/>
    <path id="Path_40" data-name="Path 40" d="M837.553,1050.315a19.214,19.214,0,0,1-4.485-.486,10.1,10.1,0,0,1-3.5-1.522,6.889,6.889,0,0,1-2.268-2.672,8.947,8.947,0,0,1-.794-3.936,15.893,15.893,0,0,1,.373-3.142,15,15,0,0,1,1.182-3.5l4.47,1.393a18.766,18.766,0,0,0-.6,2.1,8.956,8.956,0,0,0-.211,1.911,5.012,5.012,0,0,0,.389,2.024,3.769,3.769,0,0,0,1.2,1.506,5.569,5.569,0,0,0,2.041.923,12.136,12.136,0,0,0,2.915.308,21.754,21.754,0,0,0,3.822-.275,8.143,8.143,0,0,0,2.332-.729,3.033,3.033,0,0,0,1.166-.972,1.9,1.9,0,0,0,.324-1,.837.837,0,0,0-.194-.534,3.434,3.434,0,0,0-.843-.632q-.648-.39-2.008-1.037l2.1-4.4q1.91,1.2,3.028,2.008a12.258,12.258,0,0,1,1.668,1.393,3.146,3.146,0,0,1,.729,1.117,3.747,3.747,0,0,1,.178,1.183,8.317,8.317,0,0,1-.356,2.3,7.984,7.984,0,0,1-1.2,2.413,8.328,8.328,0,0,1-2.332,2.138,12.954,12.954,0,0,1-3.725,1.539,21.7,21.7,0,0,1-5.41.583Zm14.706-7.45a7.33,7.33,0,0,1-1.2-.162,19.055,19.055,0,0,1-1.91-.485,21,21,0,0,1-2.171-.794,10.7,10.7,0,0,1-1.976-1.085l-.032-4.7q1.458.713,2.575,1.149a16.61,16.61,0,0,0,1.943.647,10.63,10.63,0,0,0,1.393.275,8.275,8.275,0,0,0,.923.065h.583v5.085h-.129Z" fill="#fff"/>
    <path id="Path_41" data-name="Path 41" d="M852.388,1037.78h.324v5.085h-.324q-.97,0-.972-2.526Q851.416,1037.78,852.388,1037.78Zm0,5.085v-5.085h4.5a12.623,12.623,0,0,0,.228-1.49q.1-.939.161-1.9a14.227,14.227,0,0,0,.033-1.6l6.089-2.138q-.583,2.364-1.149,4.421a37,37,0,0,1-1.328,3.952,25.384,25.384,0,0,1-1.96,3.838h-6.576Zm8.1-14.09-3.434-3.434,3.271-3.466,3.4,3.466-3.239,3.434Zm1.409,13.653a11.363,11.363,0,0,1-2.575-1.036q-1.036-.6-1.781-1.117l2.753-3.207a5.551,5.551,0,0,0,1.069.389,9.273,9.273,0,0,0,1.36.243,14.363,14.363,0,0,0,1.555.081h1.393v5.085a13.959,13.959,0,0,1-3.773-.438Z" fill="#fff"/>
    <path id="Path_42" data-name="Path 42" d="M865.668,1037.78h.324v5.085h-.324q-.971,0-.972-2.526Q864.7,1037.78,865.668,1037.78Zm0,5.085v-5.085h.1a1.676,1.676,0,0,0,.729-.162,2.745,2.745,0,0,0,.729-.551,7.4,7.4,0,0,0,.858-1.085c.312-.464.686-1.053,1.117-1.766a24.147,24.147,0,0,1,1.814-2.64,10.068,10.068,0,0,1,1.732-1.733,6.064,6.064,0,0,1,1.733-.938,5.774,5.774,0,0,1,4.469.355,6.94,6.94,0,0,1,2.234,2.058,18.961,18.961,0,0,1,2.041,3.773,7.747,7.747,0,0,0,1.053,1.781,2.233,2.233,0,0,0,1.117.745,5.771,5.771,0,0,0,1.458.162h.356v5.085h-1.62a6.12,6.12,0,0,1-2.445-.453,5.952,5.952,0,0,1-1.83-1.215,9.5,9.5,0,0,1-1.344-1.636,13.868,13.868,0,0,1-.956-1.717q-.615-1.295-1.1-2.235a6.964,6.964,0,0,0-.938-1.441,1.314,1.314,0,0,0-.972-.5,1.508,1.508,0,0,0-.777.341,5.989,5.989,0,0,0-1.118,1.117,21.08,21.08,0,0,0-1.474,2.138q-.843,1.393-1.49,2.364a13.143,13.143,0,0,1-1.23,1.6,5.531,5.531,0,0,1-1.166.988,4.056,4.056,0,0,1-1.264.5,7.644,7.644,0,0,1-1.587.146h-.225Zm17.2-1.458a5.9,5.9,0,0,1-2.607,1.782,8.082,8.082,0,0,1-3.045.389,11.283,11.283,0,0,1-3.044-.615,12.162,12.162,0,0,1-2.656-1.3,8.037,8.037,0,0,1-1.862-1.62l2.623-3.077a7.086,7.086,0,0,0,1.312.811,13.063,13.063,0,0,0,2.1.825,12.222,12.222,0,0,0,2.607.486,9.214,9.214,0,0,0,2.818-.211l1.749,2.526Z" fill="#fff"/>
    <path id="Path_43" data-name="Path 43" d="M887.208,1037.78h.324v5.085h-.324q-.971,0-.972-2.526Q886.236,1037.78,887.208,1037.78Zm2.494-11.887-3.4-3.434,3.207-3.466,3.4,3.466Zm-2.494,16.972v-5.085h5.7a10.4,10.4,0,0,0-1.005-2.526,18.891,18.891,0,0,0-1.878-2.818l4.664-4.762a25.791,25.791,0,0,1,1.685,4.049,16.363,16.363,0,0,1,.729,4.939,18.889,18.889,0,0,1-1.183,6.2Zm8.194-16.972-3.4-3.434,3.239-3.466,3.4,3.466Z" fill="#fff"/>
    <path id="Path_44" data-name="Path 44" d="M900.294,1016.629v-2.688h.777a1.853,1.853,0,0,1-.179-.453,2.413,2.413,0,0,1-.081-.648,2.681,2.681,0,0,1,.972-2.17,3.873,3.873,0,0,1,2.56-.81,5.178,5.178,0,0,1,2.4.583l-1,2.4a3.315,3.315,0,0,0-.567-.194,2.473,2.473,0,0,0-.566-.064,1.151,1.151,0,0,0-.729.194.58.58,0,0,0,.016.955,1.987,1.987,0,0,0,1.134.211h1.943v2.688h-6.673Zm.939,2.267h5.215v23.969h-5.215Z" fill="#fff"/>
    <path id="Path_45" data-name="Path 45" d="M753.4,1081.733l-.907-5.085h9.3a5.134,5.134,0,0,0,2.057-.292,1.723,1.723,0,0,0,.794-.647l1.36,4.34a1.363,1.363,0,0,1-.826.988,5.792,5.792,0,0,1-1.668.534,10.182,10.182,0,0,1-1.717.162Zm3.984-11.6,3.984-5.15,5.7,10.268a3.293,3.293,0,0,0,.713.907,1.884,1.884,0,0,0,.81.389,5.331,5.331,0,0,0,1.1.1h.324v5.085H769.7a15.9,15.9,0,0,1-1.976-.113,5.952,5.952,0,0,1-1.733-.486,6.2,6.2,0,0,1-1.636-1.117,10.663,10.663,0,0,1-1.651-2.04l-5.312-7.839Z" fill="#fff"/>
    <path id="Path_46" data-name="Path 46" d="M770.018,1076.648h.324v5.085h-.324q-.971,0-.972-2.526Q769.046,1076.648,770.018,1076.648Zm0,5.085v-5.085h4.5a12.615,12.615,0,0,0,.228-1.49q.1-.939.161-1.9a14.225,14.225,0,0,0,.033-1.6l6.089-2.138q-.583,2.364-1.149,4.421a37.019,37.019,0,0,1-1.328,3.952,25.384,25.384,0,0,1-1.96,3.838h-6.576Zm3.725,8.713-3.4-3.466,3.206-3.434,3.4,3.434Zm5.782-9.15a11.363,11.363,0,0,1-2.575-1.036q-1.037-.6-1.781-1.117l2.753-3.207a5.543,5.543,0,0,0,1.069.389,9.255,9.255,0,0,0,1.36.243,14.393,14.393,0,0,0,1.555.081H783.3v5.085a13.959,13.959,0,0,1-3.773-.438Zm-.081,9.15-3.4-3.466,3.239-3.434,3.4,3.434Z" fill="#fff"/>
    <path id="Path_47" data-name="Path 47" d="M783.3,1076.648h.324v5.085H783.3q-.971,0-.972-2.526Q782.327,1076.648,783.3,1076.648Zm0,5.085v-5.085h4.146q.972,0,1.6-.049a12.426,12.426,0,0,0,1.264-.162q.632-.112,1.6-.275l2.4,4.535a24.907,24.907,0,0,1-3.773.761,33.481,33.481,0,0,1-4.324.275H783.3Zm19.531,0q-1.814,0-3.271-.017a22.618,22.618,0,0,1-2.7-.178,12.9,12.9,0,0,1-2.381-.534,10.614,10.614,0,0,1-2.283-1.085,17.558,17.558,0,0,1-2.446-1.879l-3.887-3.53v-6.316a16.285,16.285,0,0,1,2.575-.858q1.473-.372,3-.6a18.858,18.858,0,0,1,2.721-.227,12.473,12.473,0,0,1,3.822.551,6.089,6.089,0,0,1,2.737,1.685,4.194,4.194,0,0,1,1.021,2.915,6.51,6.51,0,0,1-.26,1.83,9.073,9.073,0,0,1-.7,1.717,10.623,10.623,0,0,1-.988,1.538,1.758,1.758,0,0,1,.389-.081c.13-.011.248-.016.356-.016h3.109v5.085Zm-8.681-5.312a14.067,14.067,0,0,0,1.215-1.166,5.607,5.607,0,0,0,.842-1.166,2.372,2.372,0,0,0,.309-1.1,1.157,1.157,0,0,0-.228-.632,1.664,1.664,0,0,0-.745-.567,3.557,3.557,0,0,0-1.393-.227q-.81,0-2.008.113a12.516,12.516,0,0,0-2.138.373l2.979,3.142a7.481,7.481,0,0,1,.632.647c.184.217.361.411.534.583Z" fill="#fff"/>
    <path id="Path_48" data-name="Path 48" d="M803.64,1076.648h.324v5.085h-.324q-.971,0-.972-2.526Q802.668,1076.648,803.64,1076.648Zm0,5.085v-5.085h3.109q.1-.681.146-1.394t.049-1.521a17.04,17.04,0,0,0-.1-1.75l6.121-2.1q-.455,2.268-.874,3.854a23.5,23.5,0,0,1-.923,2.817,19.533,19.533,0,0,1-1.2,2.43q-.7,1.2-1.732,2.753Zm10.041,0a16.576,16.576,0,0,1-4.113-.438,11.036,11.036,0,0,1-2.673-1,8.432,8.432,0,0,1-1.376-.923l1.911-3.79a6.333,6.333,0,0,0,2.008.794,11.686,11.686,0,0,0,2.624.275h3.919a9.89,9.89,0,0,0,.146-1.215c.032-.486.049-1.025.049-1.62a17.452,17.452,0,0,0-.1-1.83l6.188-2.1q-.486,2.268-.907,3.854a21.731,21.731,0,0,1-.939,2.817,21.339,21.339,0,0,1-1.215,2.43q-.7,1.2-1.7,2.753h-3.824Zm11.79,0a13.959,13.959,0,0,1-3.773-.438,11.407,11.407,0,0,1-2.575-1.036q-1.036-.6-1.781-1.117l2.883-3.11a7.011,7.011,0,0,0,1.6.438,13.092,13.092,0,0,0,2.251.179h3.984a13.521,13.521,0,0,0-1.118-2.835,17.215,17.215,0,0,0-1.668-2.574l4.664-4.729a25.271,25.271,0,0,1,1.36,2.932,15.82,15.82,0,0,1,.892,3.4,16.122,16.122,0,0,1,.048,4.033,21.239,21.239,0,0,1-1.166,4.858h-5.6Z" fill="#fff"/>
    <path id="Path_49" data-name="Path 49" d="M848.048,1090.025a9.458,9.458,0,0,1-3.223-.647,10.605,10.605,0,0,1-3.19-1.847l1.619-3.271a18.063,18.063,0,0,0,2.17.534,9.98,9.98,0,0,0,1.652.146,6.9,6.9,0,0,0,3.093-.664,5.289,5.289,0,0,0,2.1-1.8,4.326,4.326,0,0,0,.762-2.462,4.555,4.555,0,0,0-.34-1.862,7.354,7.354,0,0,0-.875-1.458q-.534-.7-1.149-1.6l6.964,3.368v1.555a10.068,10.068,0,0,1-.308,2.268,12.1,12.1,0,0,1-.988,2.64,10.443,10.443,0,0,1-1.8,2.511,8.473,8.473,0,0,1-2.721,1.878,9.233,9.233,0,0,1-3.773.713Zm12.146-8.292a10.778,10.778,0,0,1-2.187-.211,7.523,7.523,0,0,1-1.911-.664,7.83,7.83,0,0,1-1.685-1.166,12.963,12.963,0,0,1-1.57-1.716l-4.211-5.41,4.146-5.085,4.082,7.126a8.379,8.379,0,0,0,.842,1.23,2.029,2.029,0,0,0,.955.632,5.308,5.308,0,0,0,1.539.179h.324v5.085Z" fill="#fff"/>
    <path id="Path_50" data-name="Path 50" d="M860.518,1076.648h.324v5.085h-.324q-.971,0-.972-2.526Q859.546,1076.648,860.518,1076.648Zm0,5.085v-5.085h20.309a6.9,6.9,0,0,0-.259-2.543,3.615,3.615,0,0,0-1.264-1.847,4.183,4.183,0,0,0-2.591-.7,8.155,8.155,0,0,0-3.66,1,11.758,11.758,0,0,0-3.725,3.158,16.59,16.59,0,0,0-2.818,5.652l-1.3-4.632a20.587,20.587,0,0,1,3.271-5.668,13.467,13.467,0,0,1,4.179-3.417,10.252,10.252,0,0,1,4.7-1.15,9.212,9.212,0,0,1,5.086,1.279,7.457,7.457,0,0,1,2.883,3.45,12.194,12.194,0,0,1,.874,4.891,19.441,19.441,0,0,1-.939,5.6Zm2.98,0v-23.969h5.215v23.969Zm20.73-6.607a4.885,4.885,0,0,0,2.251,1.23,11.728,11.728,0,0,0,2.672.292v5.085a8.959,8.959,0,0,1-3.644-.777,6.289,6.289,0,0,1-2.866-2.591l1.587-3.239Z" fill="#fff"/>
    <path id="Path_51" data-name="Path 51" d="M889.151,1076.648h.324v5.085h-.324q-.97,0-.972-2.526Q888.179,1076.648,889.151,1076.648Zm0,5.085v-5.085h12.5c.021-.3.037-.572.049-.811s.021-.577.032-1.02.016-1.1.016-1.96a9.554,9.554,0,0,0-.146-1.458,10.166,10.166,0,0,0-.47-1.813,4.14,4.14,0,0,0-.923-1.522,2.057,2.057,0,0,0-1.539-.615,1.869,1.869,0,0,0-1.134.356,2.284,2.284,0,0,0-.729.874,2.494,2.494,0,0,0-.243,1.069,1,1,0,0,0,.292.761,1.788,1.788,0,0,0,.826.4,5.619,5.619,0,0,0,1.312.13q.875,0,1.6-.065c.485-.043.934-.086,1.344-.129l2.98,2.623a10.257,10.257,0,0,1-3.19,1.345,15.941,15.941,0,0,1-3.773.437,12.228,12.228,0,0,1-2.7-.275,6.4,6.4,0,0,1-2.089-.842,3.8,3.8,0,0,1-1.345-1.49,4.778,4.778,0,0,1-.47-2.186,7.987,7.987,0,0,1,.616-3.143,8.422,8.422,0,0,1,1.684-2.575,7.966,7.966,0,0,1,2.446-1.749,6.8,6.8,0,0,1,2.866-.631,7.345,7.345,0,0,1,3.968,1.1,7.473,7.473,0,0,1,2.8,3.418,14.748,14.748,0,0,1,1.036,5.976q0,1.1-.146,2.688t-.389,3.223q-.243,1.636-.566,2.964H889.151Zm9.911-22.09-3.433-3.433,3.271-3.466,3.4,3.466-3.239,3.433Z" fill="#fff"/>
  </g>
</svg>
