<svg xmlns="http://www.w3.org/2000/svg" width="323.149" height="132.437" viewBox="0 0 323.149 132.437">
  <g id="Group_5" data-name="Group 5" transform="translate(-98.931 -103.887)">
    <rect id="Rectangle_4" data-name="Rectangle 4" width="323.149" height="132.437" rx="9.603" transform="translate(98.931 103.887)" fill="#dde8f6"/>
    <g id="Group_4" data-name="Group 4">
      <path id="Path_1" data-name="Path 1" d="M193.553,143.355l-23.482,37.082a50.357,50.357,0,0,1-4.33,5.476,30.989,30.989,0,0,1-5.094,4.508,24.5,24.5,0,0,1-5.883,3.057,19.44,19.44,0,0,1-6.6,1.121,19.639,19.639,0,0,1-3.8-.357,9.354,9.354,0,0,1-3.158-1.2,6.539,6.539,0,0,1-2.164-2.19,6.357,6.357,0,0,1-.815-3.337,5.318,5.318,0,0,1,.459-2.164,6.042,6.042,0,0,1,1.273-1.859,6.525,6.525,0,0,1,1.833-1.3,5.035,5.035,0,0,1,2.19-.484,10.571,10.571,0,0,1,3.006.407,17.188,17.188,0,0,1,2.8,1.121l-.051.407q-.714-.255-1.451-.483a5.038,5.038,0,0,0-1.5-.229,3.632,3.632,0,0,0-1.859.458,4.388,4.388,0,0,0-1.324,1.172,5.192,5.192,0,0,0-.815,1.655,6.694,6.694,0,0,0-.279,1.91,7.482,7.482,0,0,0,.306,2.114,5.291,5.291,0,0,0,.993,1.885,4.91,4.91,0,0,0,1.808,1.35,6.5,6.5,0,0,0,2.7.51,10.854,10.854,0,0,0,4.864-1.146,19.443,19.443,0,0,0,4.508-3.158,36.406,36.406,0,0,0,4.254-4.712q2.063-2.7,4.1-5.857l7.029-10.8-.1-.1a50.83,50.83,0,0,1-3.413,3.795,34.744,34.744,0,0,1-4.151,3.591,23.2,23.2,0,0,1-4.66,2.674,12.6,12.6,0,0,1-4.992,1.045,3.591,3.591,0,0,1-2.572-.892,3.3,3.3,0,0,1-.942-2.521,10.027,10.027,0,0,1,1.2-4.2,60.4,60.4,0,0,1,2.954-5.323q1.758-2.852,3.846-5.857t3.846-5.808q1.758-2.8,2.955-5.17a9.2,9.2,0,0,0,1.2-3.9q0-3-2.7-3a12.86,12.86,0,0,0-5.17,1.12,17.411,17.411,0,0,0-4.661,2.979,15.555,15.555,0,0,0-3.388,4.279,10.485,10.485,0,0,0-1.3,5.018,5.367,5.367,0,0,0,.179,1.35,4.389,4.389,0,0,0,.509,1.223,2.885,2.885,0,0,0,.866.891,2.193,2.193,0,0,0,1.248.357,5.212,5.212,0,0,0,1.885-.332,6.947,6.947,0,0,0,1.6-.865,11.589,11.589,0,0,0,1.4-1.2q.662-.66,1.325-1.375l.356.255q-.715.814-1.528,1.6a12.952,12.952,0,0,1-1.758,1.426,9.168,9.168,0,0,1-1.986,1.019,6.538,6.538,0,0,1-2.267.382,5.392,5.392,0,0,1-3.413-1.069,3.931,3.931,0,0,1-1.375-3.311,9.779,9.779,0,0,1,1.6-5.222,17.708,17.708,0,0,1,4.228-4.609,22.482,22.482,0,0,1,5.96-3.285,19.4,19.4,0,0,1,6.851-1.248,10.433,10.433,0,0,1,2.038.2,6.109,6.109,0,0,1,1.859.688,4.134,4.134,0,0,1,1.375,1.273,3.521,3.521,0,0,1,.535,2.013,10.431,10.431,0,0,1-1.2,4.3,56.671,56.671,0,0,1-2.954,5.374q-1.758,2.853-3.846,5.857t-3.846,5.705q-1.758,2.7-2.955,4.967a8.451,8.451,0,0,0-1.2,3.642,1.8,1.8,0,0,0,2.037,2.038,7.6,7.6,0,0,0,3.489-1.045,27.041,27.041,0,0,0,3.947-2.6,37.686,37.686,0,0,0,3.795-3.412,36.469,36.469,0,0,0,3.031-3.489q1.221-1.631,2.7-3.846t3.006-4.61q1.529-2.394,3.005-4.813l2.751-4.508q1.272-2.09,2.216-3.719t1.4-2.444l5.654-.255Z" fill="#1a2947"/>
      <path id="Path_2" data-name="Path 2" d="M213.01,165.615a12.945,12.945,0,0,1-2.419,2.394,4.966,4.966,0,0,1-3.082,1.069,3.939,3.939,0,0,1-2.037-.509,5.6,5.6,0,0,1-1.579-1.427,16.344,16.344,0,0,1-2.012,4.813,16.953,16.953,0,0,1-3.388,3.974,15.987,15.987,0,0,1-4.432,2.7,13.394,13.394,0,0,1-5.094.994,6.222,6.222,0,0,1-4.482-1.6,5.8,5.8,0,0,1-1.681-4.406,10.489,10.489,0,0,1,1.375-5.171,15.605,15.605,0,0,1,3.565-4.329,18.152,18.152,0,0,1,4.839-2.954,13.539,13.539,0,0,1,5.2-1.1,6.086,6.086,0,0,1,4.329,1.478,6.2,6.2,0,0,1,1.936,3.565,4.456,4.456,0,0,0,1.146,2.445,3.087,3.087,0,0,0,2.317.917,4.6,4.6,0,0,0,2.6-.815,12.9,12.9,0,0,0,2.6-2.445l.306.408Zm-23.686,13.4a4.5,4.5,0,0,0,2.547-.866,12.427,12.427,0,0,0,2.445-2.241,20.631,20.631,0,0,0,2.165-3.107,32.794,32.794,0,0,0,1.731-3.464,23.363,23.363,0,0,0,1.146-3.311,10.991,10.991,0,0,0,.407-2.648,3.256,3.256,0,0,0-.535-1.987,2,2,0,0,0-1.706-.713,4.5,4.5,0,0,0-2.547.866,12.371,12.371,0,0,0-2.445,2.241,20.536,20.536,0,0,0-2.165,3.107,32.976,32.976,0,0,0-1.731,3.463,23.207,23.207,0,0,0-1.146,3.312,10.991,10.991,0,0,0-.407,2.648,3.247,3.247,0,0,0,.535,1.986,1.989,1.989,0,0,0,1.706.714Z" fill="#1a2947"/>
      <path id="Path_3" data-name="Path 3" d="M231.042,160.673q-1.986,3.312-3.692,5.909t-2.93,4.609a37.523,37.523,0,0,0-1.91,3.489,6.323,6.323,0,0,0-.688,2.6c0,.746.322,1.121.968,1.121a3.447,3.447,0,0,0,1.478-.434,14.091,14.091,0,0,0,1.834-1.12,22.411,22.411,0,0,0,1.986-1.6q1.019-.916,1.936-1.834,1.119-1.17,2.216-2.368t2.037-2.318q.942-1.119,1.707-2.062t1.273-1.6l.407.306q-1.223,1.631-3.107,3.9t-4.023,4.457a32,32,0,0,1-4.788,4.126,7.734,7.734,0,0,1-4.33,1.478,3.3,3.3,0,0,1-2.445-.917,3.112,3.112,0,0,1-.917-2.292,7.633,7.633,0,0,1,.179-1.732,3.94,3.94,0,0,1,.433-1.172l-.1-.1q-.916.969-1.986,2.063a20.077,20.077,0,0,1-2.292,2.012,13.1,13.1,0,0,1-2.624,1.528,7.505,7.505,0,0,1-3.03.611,2.917,2.917,0,0,1-2.4-.994,3.543,3.543,0,0,1-.814-2.317q0-1.935,2.088-5.6t5.654-9.525l5.4-.2q-4.024,6.164-6.546,10.111t-2.521,5.883a1.555,1.555,0,0,0,.331,1.019,1.086,1.086,0,0,0,.891.408,4.7,4.7,0,0,0,2.318-.815,17.472,17.472,0,0,0,2.826-2.19,31.33,31.33,0,0,0,2.93-3.158,32.566,32.566,0,0,0,2.623-3.718l4.381-7.132,5.246-.407Z" fill="#1a2947"/>
      <path id="Path_4" data-name="Path 4" d="M227.425,178.807q2.6-4.482,5.271-8.914t5.323-9.016l5.807-.2-6.724,9.475.1.1a43.158,43.158,0,0,1,3.438-3.846q1.5-1.452,2.624-2.368a20.1,20.1,0,0,1,1.885-1.4,6.782,6.782,0,0,0,1.12-.84,7.47,7.47,0,0,1,1.044-.892,3.725,3.725,0,0,1,1.146-.51,8.015,8.015,0,0,1,1.6-.229q.942-.05,2.368-.1a29.006,29.006,0,0,0-1.782,2.878,6.675,6.675,0,0,0-.815,3.234,1.935,1.935,0,0,0,2.19,2.19,3.407,3.407,0,0,0,1.4-.306,6.633,6.633,0,0,0,1.3-.764,13.221,13.221,0,0,0,1.171-.993q.56-.534,1.019-.993l.2.254a11.93,11.93,0,0,1-3.361,2.9,8.294,8.294,0,0,1-4.229,1.12,4.58,4.58,0,0,1-3.209-1.069,4.064,4.064,0,0,1-1.171-3.158,4.485,4.485,0,0,1,.764-2.5l-.1-.1a28.5,28.5,0,0,0-4.075,3.311,41.5,41.5,0,0,0-3.591,3.974,49.494,49.494,0,0,0-3.057,4.3q-1.4,2.217-2.521,4.3l-5.145.152Z" fill="#1a2947"/>
      <path id="Path_5" data-name="Path 5" d="M299.958,165.971q-1.986,1.782-4.508,4.075t-5.068,4.711q-2.547,2.419-4.915,4.813t-4.1,4.33a8.048,8.048,0,0,1-.611,1.758,5.273,5.273,0,0,1-1.019,1.451,5.467,5.467,0,0,1-1.35.993,3.337,3.337,0,0,1-1.554.382,6.468,6.468,0,0,1-.688-.051.426.426,0,0,1-.434-.458.61.61,0,0,1,.2-.484,6.587,6.587,0,0,0,.484-.483,2.585,2.585,0,0,0,.483-.866,5.008,5.008,0,0,0,.2-1.63,5.775,5.775,0,0,0-.841-3.285,5.978,5.978,0,0,0-2.088-1.936,7.787,7.787,0,0,0-2.7-.892,19.65,19.65,0,0,0-2.725-.2,7.179,7.179,0,0,0-1.783.306q-1.121.306-2.42.662t-2.648.662a11.036,11.036,0,0,1-4.252.179.836.836,0,0,1-.815-.892,1.022,1.022,0,0,1,.356-.815,3.323,3.323,0,0,1,1.5-.483,29.583,29.583,0,0,1,3.26-.255q2.115-.077,5.68-.076a7.148,7.148,0,0,0,4.533-1.707,22.518,22.518,0,0,0,4.2-4.609,65.941,65.941,0,0,0,4.126-6.7q2.064-3.793,4.305-7.972a24.169,24.169,0,0,1-2.8-.917,10.7,10.7,0,0,1-2.623-1.478,7.386,7.386,0,0,1-1.961-2.267,6.348,6.348,0,0,1-.765-3.184,5.786,5.786,0,0,1,1.554-4.2,5.92,5.92,0,0,1,4.457-1.6,8.4,8.4,0,0,1,1.478.128,3.588,3.588,0,0,1,1.223.433l-.2.458a6.922,6.922,0,0,0-1.146-.306,7.7,7.7,0,0,0-1.3-.1,6.435,6.435,0,0,0-2.47.433,4.527,4.527,0,0,0-2.675,2.853,6.345,6.345,0,0,0-.306,1.962,5.494,5.494,0,0,0,.637,2.623,7.07,7.07,0,0,0,1.732,2.113,10.651,10.651,0,0,0,2.521,1.554,13.669,13.669,0,0,0,3.005.942,25.228,25.228,0,0,1,3.54-5.246,28.061,28.061,0,0,1,4.864-4.432,24.465,24.465,0,0,1,5.808-3.082,18.254,18.254,0,0,1,6.367-1.146,11.88,11.88,0,0,1,2.164.2,6.729,6.729,0,0,1,1.987.688,4.265,4.265,0,0,1,1.477,1.325,3.606,3.606,0,0,1,.586,2.113,5.744,5.744,0,0,1-1.223,3.617,11.445,11.445,0,0,1-3.209,2.775,21.843,21.843,0,0,1-4.457,2.013,48.093,48.093,0,0,1-4.966,1.35,44.34,44.34,0,0,1-4.737.764q-2.242.229-3.82.229-1.733,3.413-3.565,6.571a38.115,38.115,0,0,1-4.178,5.857,28.906,28.906,0,0,1-5.3,4.763,24.822,24.822,0,0,1-6.877,3.285v.1q1.529,0,3.515.077a15.125,15.125,0,0,1,3.77.611,8.07,8.07,0,0,1,3.057,1.655,4.458,4.458,0,0,1,1.426,3.158q1.986-2.141,4.3-4.482t4.737-4.661q2.418-2.317,4.788-4.482t4.457-3.947l.3.356Zm8.1-20.783a2.579,2.579,0,0,0-.688-1.782,3.072,3.072,0,0,0-2.369-.764,8.387,8.387,0,0,0-4.559,1.451,23.889,23.889,0,0,0-4.3,3.565,34.268,34.268,0,0,0-3.668,4.508q-1.631,2.4-2.7,4.33a32.751,32.751,0,0,0,3.412-.2,31.105,31.105,0,0,0,3.974-.688,24.543,24.543,0,0,0,4-1.324,14.5,14.5,0,0,0,3.489-2.089,9.944,9.944,0,0,0,2.471-2.979,8.29,8.29,0,0,0,.942-4.024Z" fill="#1a2947"/>
      <path id="Path_6" data-name="Path 6" d="M324.713,165.615a12.946,12.946,0,0,1-2.419,2.394,4.966,4.966,0,0,1-3.082,1.069,3.939,3.939,0,0,1-2.037-.509,5.6,5.6,0,0,1-1.579-1.427,16.345,16.345,0,0,1-2.012,4.813,16.954,16.954,0,0,1-3.388,3.974,15.987,15.987,0,0,1-4.432,2.7,13.394,13.394,0,0,1-5.094.994,6.222,6.222,0,0,1-4.482-1.6,5.8,5.8,0,0,1-1.681-4.406,10.489,10.489,0,0,1,1.375-5.171,15.606,15.606,0,0,1,3.565-4.329,18.152,18.152,0,0,1,4.839-2.954,13.538,13.538,0,0,1,5.2-1.1,6.086,6.086,0,0,1,4.329,1.478,6.2,6.2,0,0,1,1.936,3.565,4.456,4.456,0,0,0,1.146,2.445,3.087,3.087,0,0,0,2.317.917,4.6,4.6,0,0,0,2.6-.815,12.9,12.9,0,0,0,2.6-2.445l.306.408Zm-23.686,13.4a4.5,4.5,0,0,0,2.547-.866,12.427,12.427,0,0,0,2.445-2.241,20.63,20.63,0,0,0,2.165-3.107,32.791,32.791,0,0,0,1.731-3.464,23.361,23.361,0,0,0,1.146-3.311,10.991,10.991,0,0,0,.407-2.648,3.256,3.256,0,0,0-.535-1.987,2,2,0,0,0-1.706-.713,4.5,4.5,0,0,0-2.547.866,12.371,12.371,0,0,0-2.445,2.241,20.536,20.536,0,0,0-2.165,3.107,32.973,32.973,0,0,0-1.731,3.463,23.209,23.209,0,0,0-1.146,3.312,10.991,10.991,0,0,0-.407,2.648,3.247,3.247,0,0,0,.535,1.986,1.989,1.989,0,0,0,1.706.714Z" fill="#1a2947"/>
      <path id="Path_7" data-name="Path 7" d="M310.959,182.882a5.468,5.468,0,0,0-4.049,1.477,5.555,5.555,0,0,0-1.351,3.974,6.2,6.2,0,0,0,.408,2.267,5.4,5.4,0,0,0,1.146,1.809,5.244,5.244,0,0,0,1.783,1.2,6.147,6.147,0,0,0,2.368.434,10.878,10.878,0,0,0,4.534-.968,17.132,17.132,0,0,0,4.049-2.6,30.011,30.011,0,0,0,3.617-3.693q1.706-2.062,3.209-4.228t2.827-4.305q1.323-2.139,2.495-3.82l-.1-.1a18.368,18.368,0,0,1-1.809,1.859A15.308,15.308,0,0,1,328,177.763a11.452,11.452,0,0,1-2.343,1.12,7.971,7.971,0,0,1-2.624.434,3.744,3.744,0,0,1-3.184-1.452,5.464,5.464,0,0,1-1.1-3.388,11.356,11.356,0,0,1,1.273-5.067,17.774,17.774,0,0,1,3.311-4.636,18.26,18.26,0,0,1,4.585-3.388,10.856,10.856,0,0,1,5.042-1.324,5.659,5.659,0,0,1,3.057.713,4.63,4.63,0,0,1,1.731,2.6l1.172-2.19,5.2-.306q-2.75,4.686-5.4,9.474t-5.6,9.525a21.057,21.057,0,0,0,5.323-2.343,31.975,31.975,0,0,0,4.635-3.489,43.589,43.589,0,0,0,4.075-4.228q1.91-2.267,3.642-4.56l.306.153a59.69,59.69,0,0,1-3.692,4.813,43.834,43.834,0,0,1-4.305,4.406,32.266,32.266,0,0,1-4.89,3.591,22.591,22.591,0,0,1-5.5,2.369,35.191,35.191,0,0,1-4.151,5.756,26.547,26.547,0,0,1-5.068,4.432,23.553,23.553,0,0,1-5.96,2.853,22.613,22.613,0,0,1-6.877,1.019,18.487,18.487,0,0,1-3.565-.331,9.092,9.092,0,0,1-2.979-1.121,6.076,6.076,0,0,1-2.063-2.037,5.807,5.807,0,0,1-.764-3.082,5.165,5.165,0,0,1,.586-2.471,5.592,5.592,0,0,1,1.554-1.833,6.991,6.991,0,0,1,2.216-1.121,8.562,8.562,0,0,1,2.521-.382,13.324,13.324,0,0,1,1.375.1c.611.067,1.087.119,1.426.153v.356Zm12.683-8.812a5.535,5.535,0,0,0,.51,2.5q.508,1.02,2.241,1.019a3.9,3.9,0,0,0,2.19-.764,12.2,12.2,0,0,0,2.19-1.961,20.686,20.686,0,0,0,2.037-2.726,27.325,27.325,0,0,0,1.681-3.057,20.43,20.43,0,0,0,1.121-2.929,8.77,8.77,0,0,0,.407-2.368,7.76,7.76,0,0,0-.076-1.1,3.8,3.8,0,0,0-.28-.993,1.729,1.729,0,0,0-.611-.738,1.955,1.955,0,0,0-1.121-.28,5.964,5.964,0,0,0-3.718,1.452,16.216,16.216,0,0,0-3.286,3.565,22.562,22.562,0,0,0-2.368,4.406,10.99,10.99,0,0,0-.917,3.973Z" fill="#1a2947"/>
      <path id="Path_8" data-name="Path 8" d="M375.649,165.615a12.945,12.945,0,0,1-2.419,2.394,4.966,4.966,0,0,1-3.082,1.069,3.939,3.939,0,0,1-2.037-.509,5.6,5.6,0,0,1-1.579-1.427,16.344,16.344,0,0,1-2.012,4.813,16.953,16.953,0,0,1-3.388,3.974,15.987,15.987,0,0,1-4.432,2.7,13.394,13.394,0,0,1-5.094.994,6.222,6.222,0,0,1-4.482-1.6,5.8,5.8,0,0,1-1.681-4.406,10.489,10.489,0,0,1,1.375-5.171,15.606,15.606,0,0,1,3.565-4.329,18.152,18.152,0,0,1,4.839-2.954,13.539,13.539,0,0,1,5.2-1.1,6.086,6.086,0,0,1,4.329,1.478,6.2,6.2,0,0,1,1.936,3.565,4.456,4.456,0,0,0,1.146,2.445,3.087,3.087,0,0,0,2.317.917,4.6,4.6,0,0,0,2.6-.815,12.9,12.9,0,0,0,2.6-2.445l.306.408Zm-23.685,13.4a4.5,4.5,0,0,0,2.547-.866,12.426,12.426,0,0,0,2.445-2.241,20.63,20.63,0,0,0,2.165-3.107,32.8,32.8,0,0,0,1.731-3.464A23.357,23.357,0,0,0,362,166.022a10.99,10.99,0,0,0,.407-2.648,3.256,3.256,0,0,0-.535-1.987,2,2,0,0,0-1.706-.713,4.5,4.5,0,0,0-2.547.866,12.371,12.371,0,0,0-2.445,2.241,20.536,20.536,0,0,0-2.165,3.107,32.979,32.979,0,0,0-1.731,3.463,23.205,23.205,0,0,0-1.146,3.312,10.992,10.992,0,0,0-.407,2.648,3.247,3.247,0,0,0,.535,1.986,1.989,1.989,0,0,0,1.706.714Z" fill="#1a2947"/>
    </g>
  </g>
</svg>
