<svg xmlns="http://www.w3.org/2000/svg" width="319.371" height="104.039" viewBox="0 0 319.371 104.039">
  <g id="Group_8" data-name="Group 8" transform="translate(-183.757 -1016.889)">
    <path id="Path_52" data-name="Path 52" d="M185.278,1042.865V1038.2H189.1v-13.345h-3.822v-4.665h13.184v4.665H194.64V1038.2h3.822v4.664Z" fill="#fff"/>
    <path id="Path_53" data-name="Path 53" d="M206.915,1042.865l-5.636-17.2h5.475l3.174,11.109-.713-.129,3.563-8.616h3.045l3.789,8.648-.777.064,3.175-11.077h5.474l-5.862,17.2H217.8l-3.758-9.2.422.065-3.693,9.134h-3.856Z" fill="#fff"/>
    <path id="Path_54" data-name="Path 54" d="M233.087,1022.265a3.48,3.48,0,0,1-2.315-.7,2.737,2.737,0,0,1,.016-3.935,3.955,3.955,0,0,1,4.551-.049,2.461,2.461,0,0,1,.826,1.992,2.49,2.49,0,0,1-.826,1.943,3.235,3.235,0,0,1-2.251.745Zm-2.624,20.6v-17.2h5.215v17.2Z" fill="#fff"/>
    <path id="Path_55" data-name="Path 55" d="M246.367,1043.189a11.566,11.566,0,0,1-4.4-.794,7.8,7.8,0,0,1-3.109-2.187l3.174-2.721a6.28,6.28,0,0,0,2.268,1.474,6.89,6.89,0,0,0,2.4.47,2.6,2.6,0,0,0,.745-.1,1.85,1.85,0,0,0,.566-.275,1.257,1.257,0,0,0,.372-.421,1.2,1.2,0,0,0,.13-.567,1.057,1.057,0,0,0-.551-.972,5.437,5.437,0,0,0-.939-.4,18.1,18.1,0,0,0-1.749-.5,13.612,13.612,0,0,1-2.64-.938,6.81,6.81,0,0,1-1.83-1.264,4.435,4.435,0,0,1-.988-1.49,4.969,4.969,0,0,1-.34-1.878,4.333,4.333,0,0,1,.956-2.786,6.3,6.3,0,0,1,2.51-1.862,8.5,8.5,0,0,1,3.369-.664,10.942,10.942,0,0,1,5.1,1.23,9.154,9.154,0,0,1,1.991,1.394l-2.753,3.077a6.381,6.381,0,0,0-1.3-.988,9.337,9.337,0,0,0-1.489-.713,3.965,3.965,0,0,0-2.251-.194,1.618,1.618,0,0,0-.616.26,1.249,1.249,0,0,0-.372.421,1.11,1.11,0,0,0-.13.534,1.137,1.137,0,0,0,.179.632,1.813,1.813,0,0,0,.5.5,7.563,7.563,0,0,0,1.021.421q.728.259,1.927.583a14.993,14.993,0,0,1,2.607.956,5.685,5.685,0,0,1,1.733,1.247,3.241,3.241,0,0,1,.793,1.279,5.143,5.143,0,0,1-.68,4.5,6.2,6.2,0,0,1-2.526,2.008,8.8,8.8,0,0,1-3.677.729Z" fill="#fff"/>
    <path id="Path_56" data-name="Path 56" d="M256.6,1042.865V1018.9h5.15v10.268l-1.069.389a5.245,5.245,0,0,1,1.279-2.122,7.109,7.109,0,0,1,2.219-1.538,6.555,6.555,0,0,1,2.721-.583,6.273,6.273,0,0,1,3.271.794,4.86,4.86,0,0,1,1.992,2.364,9.971,9.971,0,0,1,.664,3.87v10.527h-5.215v-10.139a4.384,4.384,0,0,0-.291-1.716,2.011,2.011,0,0,0-.875-1.005,2.772,2.772,0,0,0-1.458-.291,3.706,3.706,0,0,0-1.263.21,2.982,2.982,0,0,0-1.021.616,2.756,2.756,0,0,0-.664.923,2.884,2.884,0,0,0-.227,1.166v10.235H256.6Z" fill="#fff"/>
    <path id="Path_57" data-name="Path 57" d="M289.738,1050.315l3.92-9.2.064,2.721-8.324-18.171h5.895l3.628,8.681a12.514,12.514,0,0,1,.551,1.393,11.437,11.437,0,0,1,.389,1.458l-.745.421c.13-.324.275-.734.438-1.231s.34-1.025.534-1.587l3.175-9.134h5.927l-7.287,17.2-2.948,7.45h-5.217Z" fill="#fff"/>
    <path id="Path_58" data-name="Path 58" d="M315.391,1043.189a9.777,9.777,0,0,1-4.762-1.15,8.484,8.484,0,0,1-3.3-3.174,8.825,8.825,0,0,1-1.2-4.584,8.944,8.944,0,0,1,1.2-4.647,8.5,8.5,0,0,1,3.3-3.175,10.474,10.474,0,0,1,9.539,0,8.541,8.541,0,0,1,3.288,3.175,8.956,8.956,0,0,1,1.2,4.647,8.834,8.834,0,0,1-1.2,4.584,8.53,8.53,0,0,1-3.288,3.174A9.738,9.738,0,0,1,315.391,1043.189Zm0-4.469a3.672,3.672,0,0,0,2.057-.584,4.1,4.1,0,0,0,1.409-1.587,4.606,4.606,0,0,0,.485-2.268,4.871,4.871,0,0,0-.485-2.348,3.954,3.954,0,0,0-1.409-1.587,3.75,3.75,0,0,0-2.057-.567,3.687,3.687,0,0,0-2.041.583,4.063,4.063,0,0,0-1.425,1.587,5.013,5.013,0,0,0-.519,2.332,4.864,4.864,0,0,0,.519,2.268,4.049,4.049,0,0,0,1.425,1.587A3.69,3.69,0,0,0,315.391,1038.72Z" fill="#fff"/>
    <path id="Path_59" data-name="Path 59" d="M333.919,1043.189a6.115,6.115,0,0,1-3.238-.826,5.39,5.39,0,0,1-2.09-2.364,8.617,8.617,0,0,1-.729-3.709v-10.624h5.215v9.847a3.7,3.7,0,0,0,.761,2.478,2.638,2.638,0,0,0,2.122.891,3.406,3.406,0,0,0,1.23-.21,2.719,2.719,0,0,0,.956-.615,2.92,2.92,0,0,0,.632-.956,3.139,3.139,0,0,0,.227-1.2v-10.235h5.215v17.2h-4.892l-.194-3.53.939-.389a5.332,5.332,0,0,1-1.279,2.17,6.71,6.71,0,0,1-4.875,2.073Z" fill="#fff"/>
    <path id="Path_60" data-name="Path 60" d="M363.912,1043.189a6.537,6.537,0,0,1-2.931-.648,5.169,5.169,0,0,1-2.073-1.8,4.786,4.786,0,0,1-.762-2.705,5.3,5.3,0,0,1,.486-2.332,4.276,4.276,0,0,1,1.441-1.668,7,7,0,0,1,2.4-1,14.628,14.628,0,0,1,3.353-.341h5.215l-.291,3.271h-4.794a5.681,5.681,0,0,0-1.2.113,2.48,2.48,0,0,0-.875.356,1.665,1.665,0,0,0-.534.567,1.588,1.588,0,0,0-.179.777,1.4,1.4,0,0,0,.26.842,1.679,1.679,0,0,0,.7.551,2.486,2.486,0,0,0,1.021.194,4.688,4.688,0,0,0,1.6-.275,4.3,4.3,0,0,0,1.361-.794,4.1,4.1,0,0,0,.955-1.2l.907,2.332a8.582,8.582,0,0,1-1.636,1.943,7.877,7.877,0,0,1-2.073,1.328,5.828,5.828,0,0,1-2.349.486Zm4.47-.324v-10.56a2.453,2.453,0,0,0-.729-1.959,2.985,2.985,0,0,0-2.024-.632,5.168,5.168,0,0,0-2.251.47,5.805,5.805,0,0,0-1.895,1.538l-3.109-3.012a11.648,11.648,0,0,1,3.562-2.494,10.507,10.507,0,0,1,4.373-.907,9.93,9.93,0,0,1,3.757.647,5.228,5.228,0,0,1,2.462,1.977,6.009,6.009,0,0,1,.874,3.368v11.563h-5.02Z" fill="#fff"/>
    <path id="Path_61" data-name="Path 61" d="M377.549,1042.865v-17.2h4.956l.194,3.5-1.069.389a5.245,5.245,0,0,1,1.279-2.122,7.11,7.11,0,0,1,2.219-1.538,6.555,6.555,0,0,1,2.721-.583,6.273,6.273,0,0,1,3.271.794,4.859,4.859,0,0,1,1.992,2.364,9.971,9.971,0,0,1,.664,3.87v10.527h-5.215v-10.139a4.384,4.384,0,0,0-.291-1.716,2.011,2.011,0,0,0-.875-1.005,2.772,2.772,0,0,0-1.458-.291,3.705,3.705,0,0,0-1.263.21,2.981,2.981,0,0,0-1.021.616,2.755,2.755,0,0,0-.664.923,2.884,2.884,0,0,0-.227,1.166v10.235h-5.213Z" fill="#fff"/>
    <path id="Path_62" data-name="Path 62" d="M404.692,1043.189a7.184,7.184,0,0,1-3.968-1.134,7.745,7.745,0,0,1-2.77-3.158,11.111,11.111,0,0,1,0-9.231,7.969,7.969,0,0,1,2.77-3.19,7.1,7.1,0,0,1,4-1.166,7.186,7.186,0,0,1,2.251.356,7.1,7.1,0,0,1,1.943.972,5.942,5.942,0,0,1,1.409,1.393,3.809,3.809,0,0,1,.681,1.652l-1.264.291V1018.9h5.215v23.969H410.1l-.292-3.887,1.037.194a3.018,3.018,0,0,1-.583,1.506,5.139,5.139,0,0,1-1.377,1.3,7.332,7.332,0,0,1-1.927.891,7.78,7.78,0,0,1-2.268.324Zm1.3-4.308a3.651,3.651,0,0,0,2.057-.566,3.8,3.8,0,0,0,1.344-1.6,5.669,5.669,0,0,0,.486-2.43,5.754,5.754,0,0,0-.486-2.461,3.8,3.8,0,0,0-1.344-1.6,3.65,3.65,0,0,0-2.057-.567,3.585,3.585,0,0,0-2.024.567,3.792,3.792,0,0,0-1.345,1.6,5.757,5.757,0,0,0-.485,2.461,5.673,5.673,0,0,0,.485,2.43,3.79,3.79,0,0,0,1.345,1.6A3.584,3.584,0,0,0,405.988,1038.881Z" fill="#fff"/>
    <path id="Path_63" data-name="Path 63" d="M431.868,1050.315l3.92-9.2.064,2.721-8.324-18.171h5.895l3.628,8.681a12.52,12.52,0,0,1,.551,1.393,11.437,11.437,0,0,1,.389,1.458l-.745.421c.13-.324.275-.734.438-1.231s.34-1.025.534-1.587l3.175-9.134h5.927l-7.287,17.2-2.948,7.45h-5.217Z" fill="#fff"/>
    <path id="Path_64" data-name="Path 64" d="M457.521,1043.189a9.777,9.777,0,0,1-4.762-1.15,8.484,8.484,0,0,1-3.3-3.174,8.825,8.825,0,0,1-1.2-4.584,8.944,8.944,0,0,1,1.2-4.647,8.5,8.5,0,0,1,3.3-3.175,10.474,10.474,0,0,1,9.539,0,8.541,8.541,0,0,1,3.288,3.175,8.956,8.956,0,0,1,1.2,4.647,8.834,8.834,0,0,1-1.2,4.584,8.53,8.53,0,0,1-3.288,3.174A9.738,9.738,0,0,1,457.521,1043.189Zm0-4.469a3.672,3.672,0,0,0,2.057-.584,4.1,4.1,0,0,0,1.409-1.587,4.606,4.606,0,0,0,.485-2.268,4.871,4.871,0,0,0-.485-2.348,3.954,3.954,0,0,0-1.409-1.587,3.75,3.75,0,0,0-2.057-.567,3.687,3.687,0,0,0-2.041.583,4.063,4.063,0,0,0-1.425,1.587,5.013,5.013,0,0,0-.519,2.332,4.864,4.864,0,0,0,.519,2.268,4.049,4.049,0,0,0,1.425,1.587A3.69,3.69,0,0,0,457.521,1038.72Z" fill="#fff"/>
    <path id="Path_65" data-name="Path 65" d="M476.049,1043.189a6.115,6.115,0,0,1-3.238-.826,5.39,5.39,0,0,1-2.09-2.364,8.617,8.617,0,0,1-.729-3.709v-10.624h5.215v9.847a3.7,3.7,0,0,0,.761,2.478,2.638,2.638,0,0,0,2.122.891,3.406,3.406,0,0,0,1.23-.21,2.719,2.719,0,0,0,.956-.615,2.919,2.919,0,0,0,.632-.956,3.139,3.139,0,0,0,.227-1.2v-10.235h5.215v17.2h-4.892l-.194-3.53.939-.389a5.332,5.332,0,0,1-1.279,2.17,6.71,6.71,0,0,1-4.875,2.073Z" fill="#fff"/>
    <path id="Path_66" data-name="Path 66" d="M491.013,1042.865v-17.2h4.956l.227,5.6-.972-1.1a7.461,7.461,0,0,1,1.3-2.462,6.658,6.658,0,0,1,2.09-1.749,5.328,5.328,0,0,1,2.542-.647,6.831,6.831,0,0,1,1.086.081,3.973,3.973,0,0,1,.891.243l-1.393,5.732a4.1,4.1,0,0,0-.956-.34,5.26,5.26,0,0,0-1.247-.146,3.458,3.458,0,0,0-1.312.243,2.966,2.966,0,0,0-1.037.7,3.245,3.245,0,0,0-.68,1.068,3.772,3.772,0,0,0-.243,1.393v8.584h-5.247Z" fill="#fff"/>
    <path id="Path_67" data-name="Path 67" d="M183.757,1069.36v-4.341h11.271v4.341Zm2.526,12.373v-18.042a6.238,6.238,0,0,1,.729-3.028,5.616,5.616,0,0,1,2.057-2.153,5.79,5.79,0,0,1,3.077-.811,6.567,6.567,0,0,1,2.235.373,6.39,6.39,0,0,1,1.846,1.021l-1.49,3.789a5.18,5.18,0,0,0-.81-.356,2.278,2.278,0,0,0-.712-.129,2.159,2.159,0,0,0-.972.194,1.178,1.178,0,0,0-.567.583,2.329,2.329,0,0,0-.178.972v17.588h-5.215Z" fill="#fff"/>
    <path id="Path_68" data-name="Path 68" d="M202.024,1082.058a6.539,6.539,0,0,1-2.931-.648,5.168,5.168,0,0,1-2.073-1.8,4.786,4.786,0,0,1-.762-2.705,5.3,5.3,0,0,1,.486-2.332,4.275,4.275,0,0,1,1.441-1.668,7,7,0,0,1,2.4-1,14.628,14.628,0,0,1,3.353-.341h5.215l-.291,3.271h-4.794a5.673,5.673,0,0,0-1.2.113,2.478,2.478,0,0,0-.875.356,1.665,1.665,0,0,0-.534.567,1.588,1.588,0,0,0-.179.777,1.4,1.4,0,0,0,.26.842,1.679,1.679,0,0,0,.7.551,2.487,2.487,0,0,0,1.021.194,4.689,4.689,0,0,0,1.6-.275,4.3,4.3,0,0,0,1.361-.794,4.1,4.1,0,0,0,.955-1.2l.907,2.332a8.578,8.578,0,0,1-1.636,1.943,7.873,7.873,0,0,1-2.073,1.328,5.826,5.826,0,0,1-2.349.486Zm4.47-.325v-10.56a2.452,2.452,0,0,0-.729-1.959,2.985,2.985,0,0,0-2.024-.632,5.167,5.167,0,0,0-2.251.47,5.806,5.806,0,0,0-1.9,1.538l-3.109-3.012a11.648,11.648,0,0,1,3.562-2.494,10.506,10.506,0,0,1,4.373-.907,9.93,9.93,0,0,1,3.757.647,5.228,5.228,0,0,1,2.462,1.977,6.008,6.008,0,0,1,.874,3.368v11.563h-5.02Z" fill="#fff"/>
    <path id="Path_69" data-name="Path 69" d="M215.629,1081.733v-17.2h4.955l.162,3.109-.712.064a4.9,4.9,0,0,1,.972-1.489,5.987,5.987,0,0,1,1.376-1.086,7.259,7.259,0,0,1,1.6-.68,6.055,6.055,0,0,1,1.685-.243,6.465,6.465,0,0,1,2.315.389,4.444,4.444,0,0,1,1.782,1.264,6.425,6.425,0,0,1,1.214,2.332l-.777-.13.228-.453a6.322,6.322,0,0,1,1.117-1.409,7.324,7.324,0,0,1,1.474-1.085,7.133,7.133,0,0,1,1.668-.681,7.071,7.071,0,0,1,5.069.583,4.981,4.981,0,0,1,2.04,2.381,9.739,9.739,0,0,1,.681,3.871v10.462h-5.215V1071.66a3.516,3.516,0,0,0-.632-2.284,2.322,2.322,0,0,0-1.895-.761,3.536,3.536,0,0,0-1.247.211,2.688,2.688,0,0,0-.972.615,2.981,2.981,0,0,0-.632.923,2.884,2.884,0,0,0-.227,1.166v10.2h-5.215v-10.1a3.35,3.35,0,0,0-.664-2.235,2.314,2.314,0,0,0-1.862-.777,3.444,3.444,0,0,0-1.215.211,2.688,2.688,0,0,0-.972.615,3,3,0,0,0-.632.923,2.884,2.884,0,0,0-.227,1.166v10.2h-5.246Z" fill="#fff"/>
    <path id="Path_70" data-name="Path 70" d="M249.736,1061.133a3.48,3.48,0,0,1-2.315-.7,2.737,2.737,0,0,1,.016-3.935,3.955,3.955,0,0,1,4.551-.049,2.461,2.461,0,0,1,.826,1.992,2.49,2.49,0,0,1-.826,1.943,3.235,3.235,0,0,1-2.251.745Zm-2.624,20.6v-17.2h5.215v17.2Z" fill="#fff"/>
    <path id="Path_71" data-name="Path 71" d="M257.218,1081.733v-23.969h5.215v23.969Z" fill="#fff"/>
    <path id="Path_72" data-name="Path 72" d="M268.781,1089.184l3.92-9.2.064,2.721-8.324-18.171h5.895l3.628,8.681a12.531,12.531,0,0,1,.551,1.393,11.442,11.442,0,0,1,.389,1.458l-.745.421c.13-.324.275-.734.438-1.231s.34-1.025.534-1.587l3.175-9.134h5.927l-7.287,17.2-2.948,7.45h-5.217Z" fill="#fff"/>
    <path id="Path_73" data-name="Path 73" d="M301.722,1082.058a6.539,6.539,0,0,1-2.931-.648,5.169,5.169,0,0,1-2.073-1.8,4.786,4.786,0,0,1-.762-2.705,5.3,5.3,0,0,1,.486-2.332,4.276,4.276,0,0,1,1.441-1.668,7,7,0,0,1,2.4-1,14.628,14.628,0,0,1,3.353-.341h5.215l-.291,3.271h-4.794a5.673,5.673,0,0,0-1.2.113,2.478,2.478,0,0,0-.875.356,1.665,1.665,0,0,0-.534.567,1.588,1.588,0,0,0-.179.777,1.4,1.4,0,0,0,.26.842,1.679,1.679,0,0,0,.7.551,2.486,2.486,0,0,0,1.021.194,4.688,4.688,0,0,0,1.6-.275,4.3,4.3,0,0,0,1.361-.794,4.1,4.1,0,0,0,.955-1.2l.907,2.332a8.577,8.577,0,0,1-1.636,1.943,7.873,7.873,0,0,1-2.073,1.328,5.826,5.826,0,0,1-2.349.486Zm4.47-.325v-10.56a2.452,2.452,0,0,0-.729-1.959,2.985,2.985,0,0,0-2.024-.632,5.168,5.168,0,0,0-2.251.47,5.806,5.806,0,0,0-1.895,1.538l-3.109-3.012a11.648,11.648,0,0,1,3.562-2.494,10.506,10.506,0,0,1,4.373-.907,9.93,9.93,0,0,1,3.757.647,5.228,5.228,0,0,1,2.462,1.977,6.008,6.008,0,0,1,.874,3.368v11.563h-5.02Z" fill="#fff"/>
    <path id="Path_74" data-name="Path 74" d="M331,1081.733l-7.19-17.2h5.733l4.275,12.729-1.263.162,4.4-12.892h5.7l-7.579,17.2H331Z" fill="#fff"/>
    <path id="Path_75" data-name="Path 75" d="M353.061,1082.058a10.4,10.4,0,0,1-4.972-1.134,8.084,8.084,0,0,1-3.271-3.126,8.942,8.942,0,0,1-1.149-4.551,10.082,10.082,0,0,1,.647-3.677,8.227,8.227,0,0,1,4.615-4.728,9.109,9.109,0,0,1,3.515-.664,8.217,8.217,0,0,1,3.3.647,7.846,7.846,0,0,1,2.592,1.814,7.972,7.972,0,0,1,1.685,2.753,9.509,9.509,0,0,1,.55,3.466l-.032,1.425H346.876l-.777-2.947h10.2l-.551.583v-.647a2.7,2.7,0,0,0-.5-1.409,3.161,3.161,0,0,0-1.134-.956,3.4,3.4,0,0,0-1.57-.355,4.394,4.394,0,0,0-2.187.5,3.221,3.221,0,0,0-1.345,1.441,5.347,5.347,0,0,0-.453,2.332,4.933,4.933,0,0,0,.6,2.462,4.04,4.04,0,0,0,1.749,1.651,5.979,5.979,0,0,0,2.736.583,5.54,5.54,0,0,0,1.944-.324,7.247,7.247,0,0,0,1.878-1.1l2.43,3.434a10.859,10.859,0,0,1-2.138,1.408,10.408,10.408,0,0,1-4.7,1.118Z" fill="#fff"/>
    <path id="Path_76" data-name="Path 76" d="M363.881,1081.733v-17.2h4.956l.227,5.6-.972-1.1a7.463,7.463,0,0,1,1.295-2.462,6.66,6.66,0,0,1,2.09-1.749,5.328,5.328,0,0,1,2.542-.647,6.816,6.816,0,0,1,1.086.081,3.98,3.98,0,0,1,.891.243l-1.393,5.732a4.092,4.092,0,0,0-.956-.34,5.261,5.261,0,0,0-1.247-.146,3.458,3.458,0,0,0-1.312.243,2.966,2.966,0,0,0-1.037.7,3.244,3.244,0,0,0-.68,1.068,3.772,3.772,0,0,0-.243,1.393v8.584h-5.247Z" fill="#fff"/>
    <path id="Path_77" data-name="Path 77" d="M380.852,1089.184l3.92-9.2.064,2.721-8.324-18.171h5.9l3.628,8.681a12.531,12.531,0,0,1,.551,1.393,11.437,11.437,0,0,1,.389,1.458l-.745.421c.13-.324.275-.734.438-1.231s.34-1.025.534-1.587l3.175-9.134H396.3l-7.287,17.2-2.948,7.45h-5.217Z" fill="#fff"/>
    <path id="Path_78" data-name="Path 78" d="M407.575,1088.535l-2.008-4.017a4.181,4.181,0,0,0,3.061-.891,4.646,4.646,0,0,0,.858-3.223v-15.871H414.7v17.1a8.114,8.114,0,0,1-.826,3.871,5.162,5.162,0,0,1-2.413,2.283,9.1,9.1,0,0,1-3.887.745Zm4.6-27.4a3.352,3.352,0,0,1-2.283-.7,2.814,2.814,0,0,1,.016-3.935,3.229,3.229,0,0,1,2.268-.745,3.435,3.435,0,0,1,2.283.7,2.737,2.737,0,0,1-.016,3.935,3.3,3.3,0,0,1-2.268.745Z" fill="#fff"/>
    <path id="Path_79" data-name="Path 79" d="M427.43,1082.058a9.779,9.779,0,0,1-4.762-1.15,8.484,8.484,0,0,1-3.3-3.174,8.825,8.825,0,0,1-1.2-4.584,8.944,8.944,0,0,1,1.2-4.647,8.5,8.5,0,0,1,3.3-3.175,10.473,10.473,0,0,1,9.539,0,8.539,8.539,0,0,1,3.288,3.175,8.956,8.956,0,0,1,1.2,4.647,8.834,8.834,0,0,1-1.2,4.584,8.53,8.53,0,0,1-3.288,3.174A9.738,9.738,0,0,1,427.43,1082.058Zm0-4.47a3.673,3.673,0,0,0,2.057-.584,4.1,4.1,0,0,0,1.409-1.587,4.606,4.606,0,0,0,.485-2.268,4.871,4.871,0,0,0-.485-2.348,3.954,3.954,0,0,0-1.409-1.587,3.75,3.75,0,0,0-2.057-.567,3.687,3.687,0,0,0-2.041.583,4.063,4.063,0,0,0-1.425,1.587,5.013,5.013,0,0,0-.519,2.332,4.864,4.864,0,0,0,.519,2.268,4.049,4.049,0,0,0,1.425,1.587A3.691,3.691,0,0,0,427.43,1077.588Z" fill="#fff"/>
    <path id="Path_80" data-name="Path 80" d="M441.649,1089.184l3.92-9.2.064,2.721-8.324-18.171h5.9l3.628,8.681a12.531,12.531,0,0,1,.551,1.393,11.437,11.437,0,0,1,.389,1.458l-.745.421c.13-.324.275-.734.438-1.231s.34-1.025.534-1.587l3.175-9.134H457.1l-7.287,17.2-2.948,7.45h-5.217Z" fill="#fff"/>
    <path id="Path_81" data-name="Path 81" d="M458.138,1069.36v-4.341h11.271v4.341Zm2.526,12.373v-18.042a6.238,6.238,0,0,1,.729-3.028,5.616,5.616,0,0,1,2.057-2.153,5.79,5.79,0,0,1,3.077-.811,6.567,6.567,0,0,1,2.235.373,6.39,6.39,0,0,1,1.846,1.021l-1.49,3.789a5.18,5.18,0,0,0-.81-.356,2.278,2.278,0,0,0-.712-.129,2.159,2.159,0,0,0-.972.194,1.178,1.178,0,0,0-.567.583,2.329,2.329,0,0,0-.178.972v17.588h-5.215Z" fill="#fff"/>
    <path id="Path_82" data-name="Path 82" d="M478.219,1082.058a6.115,6.115,0,0,1-3.238-.826,5.391,5.391,0,0,1-2.09-2.364,8.618,8.618,0,0,1-.729-3.709v-10.624h5.215v9.847a3.7,3.7,0,0,0,.761,2.478,2.639,2.639,0,0,0,2.122.891,3.406,3.406,0,0,0,1.23-.21,2.721,2.721,0,0,0,.956-.615,2.92,2.92,0,0,0,.632-.956,3.139,3.139,0,0,0,.227-1.2v-10.235h5.215v17.2h-4.892l-.194-3.53.939-.389a5.331,5.331,0,0,1-1.279,2.17,6.71,6.71,0,0,1-4.875,2.073Z" fill="#fff"/>
    <path id="Path_83" data-name="Path 83" d="M493.183,1081.733v-23.969H498.4v23.969Z" fill="#fff"/>
    <path id="Path_84" data-name="Path 84" d="M185.7,1120.6v-22.674h15.807v4.729h-10.4v13.215h10.753v4.729H185.7Zm2.623-9.264V1106.8h11.758v4.535Z" fill="#fff"/>
    <path id="Path_85" data-name="Path 85" d="M208.988,1100a3.48,3.48,0,0,1-2.315-.7,2.737,2.737,0,0,1,.016-3.935,3.955,3.955,0,0,1,4.551-.049,2.461,2.461,0,0,1,.826,1.992,2.49,2.49,0,0,1-.826,1.943,3.235,3.235,0,0,1-2.251.745Zm-2.624,20.6v-17.2h5.215v17.2Z" fill="#fff"/>
    <path id="Path_86" data-name="Path 86" d="M223.013,1120.927a7.184,7.184,0,0,1-3.968-1.134,7.745,7.745,0,0,1-2.77-3.158,11.111,11.111,0,0,1,0-9.231,7.968,7.968,0,0,1,2.77-3.19,7.1,7.1,0,0,1,4-1.166,7.187,7.187,0,0,1,2.251.356,7.1,7.1,0,0,1,1.943.972,5.941,5.941,0,0,1,1.409,1.393,3.808,3.808,0,0,1,.681,1.652l-1.264.291v-11.077h5.215V1120.6h-4.858l-.292-3.887,1.037.194a3.018,3.018,0,0,1-.583,1.506,5.142,5.142,0,0,1-1.377,1.3,7.34,7.34,0,0,1-1.927.891,7.784,7.784,0,0,1-2.268.324Zm1.3-4.309a3.65,3.65,0,0,0,2.057-.566,3.8,3.8,0,0,0,1.344-1.6,5.668,5.668,0,0,0,.486-2.43,5.753,5.753,0,0,0-.486-2.461,3.8,3.8,0,0,0-1.344-1.6,3.649,3.649,0,0,0-2.057-.567,3.584,3.584,0,0,0-2.024.567,3.792,3.792,0,0,0-1.345,1.6,5.756,5.756,0,0,0-.485,2.461,5.672,5.672,0,0,0,.485,2.43,3.79,3.79,0,0,0,1.345,1.6A3.584,3.584,0,0,0,224.309,1116.618Z" fill="#fff"/>
    <path id="Path_87" data-name="Path 87" d="M252.683,1120.927a6.539,6.539,0,0,1-2.931-.648,5.169,5.169,0,0,1-2.073-1.8,4.786,4.786,0,0,1-.762-2.705,5.3,5.3,0,0,1,.486-2.332,4.276,4.276,0,0,1,1.441-1.668,7,7,0,0,1,2.4-1,14.635,14.635,0,0,1,3.353-.341h5.215l-.291,3.271h-4.794a5.673,5.673,0,0,0-1.2.113,2.478,2.478,0,0,0-.875.356,1.665,1.665,0,0,0-.534.567,1.587,1.587,0,0,0-.179.777,1.4,1.4,0,0,0,.26.842,1.68,1.68,0,0,0,.7.551,2.489,2.489,0,0,0,1.021.194,4.689,4.689,0,0,0,1.6-.275,4.3,4.3,0,0,0,1.361-.794,4.1,4.1,0,0,0,.955-1.2l.907,2.332a8.577,8.577,0,0,1-1.636,1.943,7.873,7.873,0,0,1-2.073,1.328,5.828,5.828,0,0,1-2.349.486Zm4.47-.324v-10.56a2.452,2.452,0,0,0-.729-1.959,2.985,2.985,0,0,0-2.024-.632,5.167,5.167,0,0,0-2.251.47,5.806,5.806,0,0,0-1.9,1.538l-3.109-3.012a11.648,11.648,0,0,1,3.562-2.494,10.506,10.506,0,0,1,4.373-.907,9.93,9.93,0,0,1,3.757.647,5.228,5.228,0,0,1,2.462,1.977,6.008,6.008,0,0,1,.874,3.368V1120.6h-5.02Z" fill="#fff"/>
    <path id="Path_88" data-name="Path 88" d="M266.32,1120.6v-23.969h5.215V1120.6Z" fill="#fff"/>
    <path id="Path_89" data-name="Path 89" d="M275.552,1113.671v-4.762H286.7v4.762Z" fill="#fff"/>
    <path id="Path_90" data-name="Path 90" d="M291.132,1120.6v-22.674h5.538V1120.6Zm2.59-17.783v-4.892h13.086v4.892Zm0,9.1v-4.632h11.79v4.632Z" fill="#fff"/>
    <path id="Path_91" data-name="Path 91" d="M313.545,1100a3.48,3.48,0,0,1-2.315-.7,2.737,2.737,0,0,1,.016-3.935,3.955,3.955,0,0,1,4.551-.049,2.461,2.461,0,0,1,.826,1.992,2.49,2.49,0,0,1-.826,1.943,3.235,3.235,0,0,1-2.251.745Zm-2.624,20.6v-17.2h5.215v17.2Z" fill="#fff"/>
    <path id="Path_92" data-name="Path 92" d="M319.408,1107.971V1103.4H330.97v4.567Zm3.044,12.632v-21.54h5.215v21.54Z" fill="#fff"/>
    <path id="Path_93" data-name="Path 93" d="M333.951,1120.6v-17.2h4.956l.227,5.6-.972-1.1a7.463,7.463,0,0,1,1.3-2.462,6.662,6.662,0,0,1,2.09-1.749,5.328,5.328,0,0,1,2.542-.647,6.816,6.816,0,0,1,1.086.081,3.98,3.98,0,0,1,.891.243l-1.393,5.732a4.1,4.1,0,0,0-.956-.34,5.261,5.261,0,0,0-1.247-.146,3.458,3.458,0,0,0-1.312.243,2.966,2.966,0,0,0-1.037.7,3.243,3.243,0,0,0-.68,1.068,3.772,3.772,0,0,0-.243,1.393v8.584h-5.247Z" fill="#fff"/>
  </g>
</svg>
