<svg xmlns="http://www.w3.org/2000/svg" width="599.266" height="352.73" viewBox="0 0 599.266 352.73">
  <path id="Path_9" data-name="Path 9" d="M445.98,555.919q38.349-2.891,53.932-30.844a65.858,65.858,0,0,1,4.8-9.634,94.136,94.136,0,0,1,14.383-19.276q19.16-16.371,47.938-24.093,13.182-2.891,19.18-2.89l1.2.963,1.2,17.349v1.927q-44.356,5.781-61.124,34.691c-1.61,4.508-3.2,7.714-4.8,9.641A57.062,57.062,0,0,1,510.7,550.139l-4.8,5.781h65.921v62.645h-328.4v-21.2h49.143q22.751,0,33.556-20.239a34.1,34.1,0,0,1,4.8-8.678,37.53,37.53,0,0,1,7.191-9.634q8.371-9.621,23.969-17.349,17.982-7.7,31.161-7.708h29.963v63.608H546.661v-21.2H445.981V555.92ZM335.714,732.285q38.349-1.92,53.939-31.808a44.623,44.623,0,0,0,4.79-9.634q1.187-.949,3.6-5.781a90.849,90.849,0,0,1,11.981-13.495q17.982-15.4,49.143-23.13,9.579-2.891,15.58-2.89h1.2v.963l2.4,18.312c0,.647-.406.963-1.2.963q-20.388,3.861-31.161,8.671-20.4,9.651-28.766,25.057-10.786,21.213-21.574,31.808h94.686v63.608h-246.9v-21.2H463.962v-21.2H335.713V732.284Zm5.994-134.924h55.137V553.992q-19.189,0-35.957,14.452a26.009,26.009,0,0,0-7.191,8.678q-7.2,14.451-11.988,20.239Zm81.5,204.313h67.118q9.579,0,21.574-10.6,7.2-5.791,7.191-14.459V719.753h26.364v56.864q0,14.451-11.981,26.983-19.189,18.323-41.951,18.312H423.209V801.673Zm139.032-6.744V655.182h25.167V773.727H674.9V742.883h26.364v30.844q14.389,0,17.982-.963,20.367-4.81,27.562-18.312,5.987-10.592,7.191-13.5a91.711,91.711,0,0,1,8.389-9.634,71.467,71.467,0,0,1,31.168-17.349q13.172-3.84,19.173-3.854H842.7v84.811H562.241ZM719.249,597.361q32.361,0,43.142-20.239,2.4-5.781,3.6-8.678a23.232,23.232,0,0,0,3.592-5.781,57.237,57.237,0,0,1,13.185-12.525q25.167-17.352,59.927-17.349v38.552H817.527V556.882q-17.982,1.941-27.568,20.239-7.2,14.451-13.185,20.239H842.7v21.2H586.211v-21.2h46.741V566.516h25.167V597.36h34.76V566.516H719.25V597.36Zm-45.544,88.665,25.167-19.276h22.772v9.634H703.669l-29.963,25.063-26.371-21.2H608.983V670.6h44.346l20.377,15.422Zm-43.149,133.96q-20.4,0-20.377-16.386h40.754Q650.933,820,630.556,819.986Zm55.13-312.253,25.174-20.239H818.725v10.6H715.65l-29.963,24.093-26.364-20.239H620.971v-10.6H665.31l20.377,16.386ZM650.933,643.62q-20.4,0-20.377-16.386H671.3Q671.3,643.637,650.933,643.62Zm47.939,0q-19.19,0-19.18-16.386h39.556q0,16.4-20.377,16.386Zm49.143,46.26V664.823h39.55V694.7L756.4,704.338q-3.6-5.792-3.6-8.678V694.7c7.976-2.56,11.988-4.17,11.988-4.817Zm13.178-9.635h13.185v-4.824H761.193Zm1.2,93.482h55.137V730.358q-19.19,0-34.76,13.488a27.049,27.049,0,0,0-8.389,10.6q-7.2,13.512-11.988,19.276Z" transform="translate(-243.429 -469.182)" fill="#fff"/>
</svg>
